<?xml version="1.0" encoding="utf-8"?>
<svg xmlns="http://www.w3.org/2000/svg" xmlns:xlink="http://www.w3.org/1999/xlink" width="960" height="480" viewBox="0 0 3840 1920">
<defs>
  <clipPath id="clip960">
    <rect x="0" y="0" width="3840" height="1920"/>
  </clipPath>
</defs>
<path clip-path="url(#clip960)" d="M0 1920 L3840 1920 L3840 0 L0 0  Z" fill="#ffffff" fill-rule="evenodd" fill-opacity="1"/>
<defs>
  <clipPath id="clip961">
    <rect x="768" y="0" width="2689" height="1920"/>
  </clipPath>
</defs>
<path clip-path="url(#clip960)" d="M340.655 1652.6 L3792.76 1652.6 L3792.76 127.792 L340.655 127.792  Z" fill="#ffffff" fill-rule="evenodd" fill-opacity="1"/>
<defs>
  <clipPath id="clip962">
    <rect x="340" y="127" width="3453" height="1526"/>
  </clipPath>
</defs>
<polyline clip-path="url(#clip962)" style="stroke:#000000; stroke-linecap:round; stroke-linejoin:round; stroke-width:2; stroke-opacity:0.1; fill:none" points="786.556,1652.6 786.556,127.792 "/>
<polyline clip-path="url(#clip962)" style="stroke:#000000; stroke-linecap:round; stroke-linejoin:round; stroke-width:2; stroke-opacity:0.1; fill:none" points="1426.63,1652.6 1426.63,127.792 "/>
<polyline clip-path="url(#clip962)" style="stroke:#000000; stroke-linecap:round; stroke-linejoin:round; stroke-width:2; stroke-opacity:0.1; fill:none" points="2066.71,1652.6 2066.71,127.792 "/>
<polyline clip-path="url(#clip962)" style="stroke:#000000; stroke-linecap:round; stroke-linejoin:round; stroke-width:2; stroke-opacity:0.1; fill:none" points="2706.78,1652.6 2706.78,127.792 "/>
<polyline clip-path="url(#clip962)" style="stroke:#000000; stroke-linecap:round; stroke-linejoin:round; stroke-width:2; stroke-opacity:0.1; fill:none" points="3346.85,1652.6 3346.85,127.792 "/>
<polyline clip-path="url(#clip960)" style="stroke:#000000; stroke-linecap:round; stroke-linejoin:round; stroke-width:4; stroke-opacity:1; fill:none" points="340.655,1652.6 3792.76,1652.6 "/>
<polyline clip-path="url(#clip960)" style="stroke:#000000; stroke-linecap:round; stroke-linejoin:round; stroke-width:4; stroke-opacity:1; fill:none" points="340.655,127.792 3792.76,127.792 "/>
<polyline clip-path="url(#clip960)" style="stroke:#000000; stroke-linecap:round; stroke-linejoin:round; stroke-width:4; stroke-opacity:1; fill:none" points="786.556,1652.6 786.556,1633.7 "/>
<polyline clip-path="url(#clip960)" style="stroke:#000000; stroke-linecap:round; stroke-linejoin:round; stroke-width:4; stroke-opacity:1; fill:none" points="1426.63,1652.6 1426.63,1633.7 "/>
<polyline clip-path="url(#clip960)" style="stroke:#000000; stroke-linecap:round; stroke-linejoin:round; stroke-width:4; stroke-opacity:1; fill:none" points="2066.71,1652.6 2066.71,1633.7 "/>
<polyline clip-path="url(#clip960)" style="stroke:#000000; stroke-linecap:round; stroke-linejoin:round; stroke-width:4; stroke-opacity:1; fill:none" points="2706.78,1652.6 2706.78,1633.7 "/>
<polyline clip-path="url(#clip960)" style="stroke:#000000; stroke-linecap:round; stroke-linejoin:round; stroke-width:4; stroke-opacity:1; fill:none" points="3346.85,1652.6 3346.85,1633.7 "/>
<path clip-path="url(#clip960)" d="M769.733 1735.6 L769.733 1733.26 L793.041 1697.65 Q793.634 1696.72 794.56 1696.76 Q795.412 1696.76 795.598 1697.09 Q795.783 1697.43 795.783 1698.73 L795.783 1733.26 L803.379 1733.26 L803.379 1735.6 L795.783 1735.6 L795.783 1742.19 Q795.783 1744.38 796.672 1745.08 Q797.599 1745.79 801.526 1745.79 L803.12 1745.79 L803.12 1748.12 Q800.007 1747.9 792.819 1747.9 Q785.667 1747.9 782.554 1748.12 L782.554 1745.79 L784.148 1745.79 Q788.075 1745.79 789.002 1745.12 Q789.928 1744.41 789.928 1742.19 L789.928 1735.6 L769.733 1735.6 M771.882 1733.26 L790.373 1733.26 L790.373 1704.95 L771.882 1733.26 Z" fill="#000000" fill-rule="nonzero" fill-opacity="1" /><path clip-path="url(#clip960)" d="M1414.11 1704.8 L1414.11 1702.43 Q1423.22 1702.43 1427.93 1697.58 Q1429.22 1697.58 1429.45 1697.87 Q1429.67 1698.17 1429.67 1699.54 L1429.67 1742.12 Q1429.67 1744.38 1430.78 1745.08 Q1431.89 1745.79 1436.75 1745.79 L1439.16 1745.79 L1439.16 1748.12 Q1436.49 1747.9 1426.85 1747.9 Q1417.22 1747.9 1414.59 1748.12 L1414.59 1745.79 L1417 1745.79 Q1421.78 1745.79 1422.93 1745.12 Q1424.07 1744.41 1424.07 1742.12 L1424.07 1702.8 Q1420.11 1704.8 1414.11 1704.8 Z" fill="#000000" fill-rule="nonzero" fill-opacity="1" /><path clip-path="url(#clip960)" d="M2051.55 1735.89 Q2051.55 1733.63 2052.77 1732.78 Q2054 1731.89 2055.29 1731.89 Q2057.03 1731.89 2058.03 1733 Q2059.07 1734.08 2059.07 1735.6 Q2059.07 1737.11 2058.03 1738.23 Q2057.03 1739.3 2055.29 1739.3 Q2054.44 1739.3 2054 1739.15 Q2055 1742.64 2058.03 1745.16 Q2061.11 1747.68 2065.15 1747.68 Q2070.23 1747.68 2073.26 1742.75 Q2075.08 1739.56 2075.08 1732.33 Q2075.08 1725.96 2073.71 1722.77 Q2071.6 1717.92 2067.26 1717.92 Q2061.11 1717.92 2057.48 1723.22 Q2057.03 1723.89 2056.52 1723.92 Q2055.77 1723.92 2055.59 1723.52 Q2055.44 1723.07 2055.44 1721.92 L2055.44 1699.47 Q2055.44 1697.65 2056.18 1697.65 Q2056.48 1697.65 2057.11 1697.87 Q2061.89 1699.99 2067.19 1700.02 Q2072.63 1700.02 2077.53 1697.8 Q2077.9 1697.58 2078.12 1697.58 Q2078.86 1697.58 2078.9 1698.43 Q2078.9 1698.73 2078.27 1699.61 Q2077.67 1700.47 2076.38 1701.62 Q2075.08 1702.73 2073.41 1703.8 Q2071.74 1704.88 2069.3 1705.62 Q2066.89 1706.32 2064.22 1706.32 Q2061.04 1706.32 2057.78 1705.32 L2057.78 1720.11 Q2061.7 1716.25 2067.41 1716.25 Q2073.49 1716.25 2077.67 1721.14 Q2081.86 1726.03 2081.86 1732.85 Q2081.86 1740 2076.9 1744.9 Q2071.97 1749.79 2065.3 1749.79 Q2059.22 1749.79 2055.37 1745.45 Q2051.55 1741.12 2051.55 1735.89 Z" fill="#000000" fill-rule="nonzero" fill-opacity="1" /><path clip-path="url(#clip960)" d="M2691.62 1748.12 Q2691.62 1746.75 2691.74 1746.34 Q2691.88 1745.93 2692.48 1745.3 L2707.04 1729.07 Q2715.01 1720.11 2715.01 1712.29 Q2715.01 1707.21 2712.34 1703.58 Q2709.71 1699.95 2704.85 1699.95 Q2701.52 1699.95 2698.7 1701.99 Q2695.89 1704.02 2694.59 1707.66 Q2694.81 1707.58 2695.59 1707.58 Q2697.48 1707.58 2698.52 1708.77 Q2699.59 1709.95 2699.59 1711.55 Q2699.59 1713.58 2698.26 1714.58 Q2696.96 1715.55 2695.66 1715.55 Q2695.14 1715.55 2694.44 1715.44 Q2693.77 1715.33 2692.7 1714.29 Q2691.62 1713.21 2691.62 1711.32 Q2691.62 1706.03 2695.63 1701.8 Q2699.67 1697.58 2705.82 1697.58 Q2712.78 1697.58 2717.34 1701.73 Q2721.94 1705.84 2721.94 1712.29 Q2721.94 1714.55 2721.23 1716.62 Q2720.56 1718.66 2719.64 1720.25 Q2718.75 1721.85 2716.3 1724.4 Q2713.86 1726.96 2711.89 1728.78 Q2709.93 1730.59 2705.52 1734.45 L2697.48 1742.26 L2711.15 1742.26 Q2717.82 1742.26 2718.34 1741.67 Q2719.08 1740.6 2720.01 1734.93 L2721.94 1734.93 L2719.79 1748.12 L2691.62 1748.12 Z" fill="#000000" fill-rule="nonzero" fill-opacity="1" /><path clip-path="url(#clip960)" d="M3331.11 1737.89 Q3331.11 1735.63 3332.4 1734.56 Q3333.7 1733.48 3335.37 1733.48 Q3337.11 1733.48 3338.33 1734.63 Q3339.59 1735.74 3339.59 1737.71 Q3339.59 1739.82 3338.11 1741.01 Q3336.66 1742.19 3334.59 1741.89 Q3336.4 1744.93 3339.74 1746.3 Q3343.11 1747.68 3346.22 1747.68 Q3349.49 1747.68 3352.12 1744.86 Q3354.78 1742.04 3354.78 1735.15 Q3354.78 1729.3 3352.49 1725.92 Q3350.23 1722.55 3345.74 1722.55 L3342.41 1722.55 Q3341.26 1722.55 3340.93 1722.44 Q3340.59 1722.33 3340.59 1721.7 Q3340.59 1720.96 3341.74 1720.81 Q3342.89 1720.81 3344.71 1720.59 Q3349.11 1720.44 3351.45 1716.62 Q3353.56 1713.07 3353.56 1707.99 Q3353.56 1703.36 3351.34 1701.43 Q3349.15 1699.47 3346.3 1699.47 Q3343.63 1699.47 3340.7 1700.58 Q3337.78 1701.69 3336.18 1704.17 Q3340.89 1704.17 3340.89 1707.99 Q3340.89 1709.66 3339.81 1710.77 Q3338.78 1711.84 3337.03 1711.84 Q3335.37 1711.84 3334.26 1710.81 Q3333.14 1709.73 3333.14 1707.91 Q3333.14 1703.58 3337 1700.58 Q3340.89 1697.58 3346.59 1697.58 Q3352.23 1697.58 3356.38 1700.54 Q3360.56 1703.51 3360.56 1708.06 Q3360.56 1712.55 3357.6 1716.22 Q3354.64 1719.88 3349.93 1721.4 Q3355.71 1722.55 3359.16 1726.48 Q3362.6 1730.37 3362.6 1735.15 Q3362.6 1741.08 3357.93 1745.45 Q3353.26 1749.79 3346.45 1749.79 Q3340.15 1749.79 3335.63 1746.38 Q3331.11 1742.97 3331.11 1737.89 Z" fill="#000000" fill-rule="nonzero" fill-opacity="1" /><path clip-path="url(#clip960)" d="M1858.93 1862.41 Q1848.55 1851.68 1848.55 1836.32 Q1848.55 1820.9 1859.02 1810.23 Q1869.5 1799.56 1883.73 1799.56 Q1887.28 1799.56 1890.3 1800.4 Q1893.36 1801.19 1895.78 1802.82 Q1898.2 1804.4 1899.44 1805.49 Q1900.72 1806.53 1902.45 1808.26 L1907.54 1800.8 Q1908.33 1799.56 1909.12 1799.56 Q1909.96 1799.56 1910.11 1800.05 Q1910.26 1800.5 1910.26 1801.98 L1910.26 1825.99 Q1910.26 1827.62 1910.06 1828.02 Q1909.86 1828.41 1908.63 1828.41 Q1907.64 1828.41 1907.44 1828.12 Q1907.25 1827.82 1907 1826.68 Q1905.47 1815.77 1899.34 1809.24 Q1893.26 1802.72 1884.96 1802.72 Q1882.54 1802.72 1879.82 1803.27 Q1877.16 1803.81 1873.2 1805.88 Q1869.3 1807.96 1866.29 1811.37 Q1863.32 1814.73 1861.15 1821.25 Q1858.97 1827.72 1858.97 1836.32 Q1858.97 1844.82 1861.15 1851.34 Q1863.32 1857.86 1866.34 1861.27 Q1869.4 1864.63 1873.35 1866.75 Q1877.35 1868.88 1880.17 1869.47 Q1883.04 1870.01 1885.56 1870.01 Q1887.28 1870.01 1889.31 1869.67 Q1891.34 1869.27 1894.35 1868.19 Q1897.41 1867.05 1899.34 1864.38 Q1901.27 1861.71 1901.27 1857.76 L1901.27 1851.29 Q1901.27 1848.28 1899.78 1847.34 Q1898.3 1846.4 1891.83 1846.4 L1888.62 1846.4 L1888.62 1843.29 Q1892.27 1843.58 1904.87 1843.58 Q1906.01 1843.58 1917.23 1843.29 L1917.23 1846.4 Q1912.38 1846.4 1911.3 1847.14 Q1910.26 1847.83 1910.26 1850.84 L1910.26 1868.48 Q1910.26 1870.8 1909.37 1870.8 Q1908.58 1870.8 1906.21 1868.53 Q1903.89 1866.26 1902.85 1864.53 Q1900.43 1868.78 1895.14 1870.95 Q1889.9 1873.13 1883.93 1873.13 Q1869.35 1873.13 1858.93 1862.41 Z" fill="#000000" fill-rule="nonzero" fill-opacity="1" /><path clip-path="url(#clip960)" d="M1924.98 1848.62 Q1924.98 1839.09 1931.11 1832.32 Q1937.24 1825.55 1946.03 1825.55 Q1954.92 1825.55 1959.52 1831.33 Q1964.16 1837.11 1964.16 1845.41 Q1964.16 1846.94 1963.77 1847.24 Q1963.37 1847.53 1961.64 1847.53 L1933.38 1847.53 Q1933.38 1857.86 1936.44 1862.7 Q1940.69 1869.47 1947.86 1869.47 Q1948.85 1869.47 1950.03 1869.27 Q1951.22 1869.08 1953.64 1868.24 Q1956.06 1867.35 1958.18 1865.02 Q1960.31 1862.7 1961.54 1859.05 Q1961.84 1857.61 1962.83 1857.66 Q1964.16 1857.66 1964.16 1858.85 Q1964.16 1859.74 1963.17 1861.76 Q1962.23 1863.74 1960.41 1866.11 Q1958.58 1868.48 1955.02 1870.26 Q1951.51 1872.04 1947.26 1872.04 Q1938.37 1872.04 1931.65 1865.32 Q1924.98 1858.55 1924.98 1848.62 M1933.48 1845.41 L1957.49 1845.41 Q1957.49 1843.29 1957.1 1840.91 Q1956.75 1838.54 1955.66 1835.28 Q1954.63 1831.97 1952.16 1829.9 Q1949.69 1827.82 1946.03 1827.82 Q1944.4 1827.82 1942.62 1828.51 Q1940.89 1829.2 1938.77 1830.88 Q1936.64 1832.56 1935.16 1836.37 Q1933.68 1840.17 1933.48 1845.41 Z" fill="#000000" fill-rule="nonzero" fill-opacity="1" /><path clip-path="url(#clip960)" d="M1970.34 1870.9 L1970.34 1867.79 Q1975.72 1867.79 1976.96 1867.15 Q1978.19 1866.46 1978.19 1863.2 L1978.19 1836.07 Q1978.19 1832.32 1976.86 1831.38 Q1975.57 1830.44 1970.34 1830.44 L1970.34 1827.28 L1984.57 1826.19 L1984.57 1836.81 Q1989.31 1826.19 1999.54 1826.19 Q2007.15 1826.19 2010.16 1829.95 Q2012.38 1832.47 2012.83 1835.28 Q2013.32 1838.1 2013.32 1845.41 L2013.32 1864.73 Q2013.42 1866.85 2015.05 1867.35 Q2016.68 1867.79 2021.23 1867.79 L2021.23 1870.9 Q2010.9 1870.61 2009.86 1870.61 Q2009.07 1870.61 1998.45 1870.9 L1998.45 1867.79 Q2003.84 1867.79 2005.07 1867.15 Q2006.36 1866.46 2006.36 1863.2 L2006.36 1839.63 Q2006.36 1834.49 2004.77 1831.48 Q2003.19 1828.41 1998.85 1828.41 Q1993.61 1828.41 1989.41 1832.81 Q1985.21 1837.21 1985.21 1844.62 L1985.21 1863.2 Q1985.21 1866.46 1986.44 1867.15 Q1987.73 1867.79 1993.06 1867.79 L1993.06 1870.9 Q1982.74 1870.61 1981.75 1870.61 Q1980.96 1870.61 1970.34 1870.9 Z" fill="#000000" fill-rule="nonzero" fill-opacity="1" /><path clip-path="url(#clip960)" d="M2026.02 1848.62 Q2026.02 1839.09 2032.15 1832.32 Q2038.27 1825.55 2047.07 1825.55 Q2055.96 1825.55 2060.55 1831.33 Q2065.2 1837.11 2065.2 1845.41 Q2065.2 1846.94 2064.8 1847.24 Q2064.41 1847.53 2062.68 1847.53 L2034.42 1847.53 Q2034.42 1857.86 2037.48 1862.7 Q2041.73 1869.47 2048.89 1869.47 Q2049.88 1869.47 2051.07 1869.27 Q2052.25 1869.08 2054.67 1868.24 Q2057.1 1867.35 2059.22 1865.02 Q2061.34 1862.7 2062.58 1859.05 Q2062.88 1857.61 2063.86 1857.66 Q2065.2 1857.66 2065.2 1858.85 Q2065.2 1859.74 2064.21 1861.76 Q2063.27 1863.74 2061.44 1866.11 Q2059.62 1868.48 2056.06 1870.26 Q2052.55 1872.04 2048.3 1872.04 Q2039.41 1872.04 2032.69 1865.32 Q2026.02 1858.55 2026.02 1848.62 M2034.52 1845.41 L2058.53 1845.41 Q2058.53 1843.29 2058.13 1840.91 Q2057.79 1838.54 2056.7 1835.28 Q2055.66 1831.97 2053.19 1829.9 Q2050.72 1827.82 2047.07 1827.82 Q2045.44 1827.82 2043.66 1828.51 Q2041.93 1829.2 2039.8 1830.88 Q2037.68 1832.56 2036.2 1836.37 Q2034.71 1840.17 2034.52 1845.41 Z" fill="#000000" fill-rule="nonzero" fill-opacity="1" /><path clip-path="url(#clip960)" d="M2070.93 1870.9 L2070.93 1867.79 Q2076.31 1867.79 2077.55 1867.15 Q2078.83 1866.46 2078.83 1863.2 L2078.83 1836.07 Q2078.83 1832.32 2077.5 1831.38 Q2076.22 1830.44 2070.93 1830.44 L2070.93 1827.28 L2085.01 1826.19 L2085.01 1837.31 Q2086.44 1832.96 2089.46 1829.6 Q2092.52 1826.19 2097.46 1826.19 Q2100.72 1826.19 2102.8 1828.02 Q2104.92 1829.85 2104.92 1832.37 Q2104.92 1834.59 2103.54 1835.73 Q2102.2 1836.81 2100.57 1836.81 Q2098.75 1836.81 2097.46 1835.68 Q2096.23 1834.49 2096.23 1832.47 Q2096.23 1831.23 2096.77 1830.29 Q2097.36 1829.3 2097.81 1828.96 Q2098.25 1828.61 2098.55 1828.51 Q2098.35 1828.41 2097.46 1828.41 Q2091.88 1828.41 2088.67 1834 Q2085.5 1839.53 2085.5 1847.44 L2085.5 1863 Q2085.5 1865.91 2086.69 1866.85 Q2087.93 1867.79 2093.21 1867.79 L2095.34 1867.79 L2095.34 1870.9 Q2091.29 1870.61 2082.49 1870.61 Q2081.26 1870.61 2079.33 1870.66 Q2077.4 1870.71 2074.88 1870.8 Q2072.36 1870.9 2070.93 1870.9 Z" fill="#000000" fill-rule="nonzero" fill-opacity="1" /><path clip-path="url(#clip960)" d="M2111.89 1861.27 Q2111.89 1852.67 2122.02 1848.13 Q2128.09 1845.21 2140.64 1844.47 L2140.64 1840.77 Q2140.64 1834.49 2137.33 1831.18 Q2134.07 1827.82 2129.92 1827.82 Q2122.51 1827.82 2118.95 1832.47 Q2121.97 1832.56 2123.05 1834.1 Q2124.14 1835.58 2124.14 1837.11 Q2124.14 1839.14 2122.86 1840.47 Q2121.62 1841.75 2119.5 1841.75 Q2117.47 1841.75 2116.14 1840.52 Q2114.8 1839.23 2114.8 1837.01 Q2114.8 1832.07 2119.25 1828.81 Q2123.75 1825.55 2130.12 1825.55 Q2138.42 1825.55 2143.95 1831.13 Q2145.68 1832.86 2146.52 1835.08 Q2147.41 1837.31 2147.51 1838.79 Q2147.61 1840.22 2147.61 1843.09 L2147.61 1863.3 Q2147.61 1863.89 2147.81 1864.88 Q2148 1865.86 2148.89 1867.15 Q2149.83 1868.38 2151.36 1868.38 Q2155.02 1868.38 2154.97 1861.91 L2154.97 1856.23 L2157.54 1856.23 L2157.54 1861.91 Q2157.54 1867.3 2154.67 1869.42 Q2151.86 1871.5 2149.24 1871.5 Q2145.88 1871.5 2143.76 1869.03 Q2141.63 1866.56 2141.33 1863.2 Q2139.8 1867.05 2136.29 1869.57 Q2132.84 1872.04 2128.09 1872.04 Q2124.44 1872.04 2120.98 1871.1 Q2117.57 1870.21 2114.7 1867.69 Q2111.89 1865.12 2111.89 1861.27 M2119.69 1861.17 Q2119.69 1864.93 2122.36 1867.35 Q2125.03 1869.77 2128.78 1869.77 Q2133.03 1869.77 2136.84 1866.51 Q2140.64 1863.2 2140.64 1856.72 L2140.64 1846.6 Q2129.43 1846.99 2124.54 1851.49 Q2119.69 1855.93 2119.69 1861.17 Z" fill="#000000" fill-rule="nonzero" fill-opacity="1" /><path clip-path="url(#clip960)" d="M2160.16 1830.44 L2160.16 1828.22 Q2164.8 1828.02 2167.87 1824.76 Q2170.98 1821.45 2172.02 1817.4 Q2173.1 1813.34 2173.2 1808.65 L2175.72 1808.65 L2175.72 1827.28 L2190.2 1827.28 L2190.2 1830.44 L2175.72 1830.44 L2175.72 1858.55 Q2175.72 1869.47 2182.54 1869.47 Q2185.45 1869.47 2187.38 1866.51 Q2189.31 1863.49 2189.31 1858.16 L2189.31 1852.57 L2191.83 1852.57 L2191.83 1858.35 Q2191.83 1863.84 2189.31 1867.94 Q2186.79 1872.04 2181.8 1872.04 Q2179.97 1872.04 2178.14 1871.55 Q2176.36 1871.1 2173.99 1869.92 Q2171.67 1868.68 2170.19 1865.72 Q2168.75 1862.7 2168.75 1858.35 L2168.75 1830.44 L2160.16 1830.44 Z" fill="#000000" fill-rule="nonzero" fill-opacity="1" /><path clip-path="url(#clip960)" d="M2206.95 1865.47 Q2200.28 1858.85 2200.28 1849.26 Q2200.28 1839.63 2206.8 1832.61 Q2213.37 1825.55 2222.76 1825.55 Q2231.95 1825.55 2238.52 1832.56 Q2245.14 1839.53 2245.14 1849.26 Q2245.14 1858.8 2238.47 1865.42 Q2231.85 1872.04 2222.66 1872.04 Q2213.67 1872.04 2206.95 1865.47 M2208.68 1848.42 Q2208.68 1858.26 2211.24 1862.7 Q2215.2 1869.47 2222.76 1869.47 Q2226.51 1869.47 2229.62 1867.45 Q2232.79 1865.42 2234.52 1862.01 Q2236.74 1857.56 2236.74 1848.42 Q2236.74 1838.69 2234.07 1834.39 Q2230.12 1827.82 2222.66 1827.82 Q2219.4 1827.82 2216.19 1829.55 Q2213.02 1831.23 2211.1 1834.59 Q2208.68 1839.04 2208.68 1848.42 Z" fill="#000000" fill-rule="nonzero" fill-opacity="1" /><path clip-path="url(#clip960)" d="M2250.87 1870.9 L2250.87 1867.79 Q2256.25 1867.79 2257.49 1867.15 Q2258.77 1866.46 2258.77 1863.2 L2258.77 1836.07 Q2258.77 1832.32 2257.44 1831.38 Q2256.16 1830.44 2250.87 1830.44 L2250.87 1827.28 L2264.95 1826.19 L2264.95 1837.31 Q2266.38 1832.96 2269.4 1829.6 Q2272.46 1826.19 2277.4 1826.19 Q2280.66 1826.19 2282.74 1828.02 Q2284.86 1829.85 2284.86 1832.37 Q2284.86 1834.59 2283.48 1835.73 Q2282.14 1836.81 2280.51 1836.81 Q2278.68 1836.81 2277.4 1835.68 Q2276.17 1834.49 2276.17 1832.47 Q2276.17 1831.23 2276.71 1830.29 Q2277.3 1829.3 2277.75 1828.96 Q2278.19 1828.61 2278.49 1828.51 Q2278.29 1828.41 2277.4 1828.41 Q2271.82 1828.41 2268.61 1834 Q2265.44 1839.53 2265.44 1847.44 L2265.44 1863 Q2265.44 1865.91 2266.63 1866.85 Q2267.86 1867.79 2273.15 1867.79 L2275.28 1867.79 L2275.28 1870.9 Q2271.22 1870.61 2262.43 1870.61 Q2261.19 1870.61 2259.27 1870.66 Q2257.34 1870.71 2254.82 1870.8 Q2252.3 1870.9 2250.87 1870.9 Z" fill="#000000" fill-rule="nonzero" fill-opacity="1" /><polyline clip-path="url(#clip962)" style="stroke:#000000; stroke-linecap:round; stroke-linejoin:round; stroke-width:2; stroke-opacity:0.1; fill:none" points="340.655,1652.6 3792.76,1652.6 "/>
<polyline clip-path="url(#clip962)" style="stroke:#000000; stroke-linecap:round; stroke-linejoin:round; stroke-width:2; stroke-opacity:0.1; fill:none" points="340.655,1359.76 3792.76,1359.76 "/>
<polyline clip-path="url(#clip962)" style="stroke:#000000; stroke-linecap:round; stroke-linejoin:round; stroke-width:2; stroke-opacity:0.1; fill:none" points="340.655,1066.92 3792.76,1066.92 "/>
<polyline clip-path="url(#clip962)" style="stroke:#000000; stroke-linecap:round; stroke-linejoin:round; stroke-width:2; stroke-opacity:0.1; fill:none" points="340.655,774.075 3792.76,774.075 "/>
<polyline clip-path="url(#clip962)" style="stroke:#000000; stroke-linecap:round; stroke-linejoin:round; stroke-width:2; stroke-opacity:0.1; fill:none" points="340.655,481.233 3792.76,481.233 "/>
<polyline clip-path="url(#clip962)" style="stroke:#000000; stroke-linecap:round; stroke-linejoin:round; stroke-width:2; stroke-opacity:0.1; fill:none" points="340.655,188.392 3792.76,188.392 "/>
<polyline clip-path="url(#clip960)" style="stroke:#000000; stroke-linecap:round; stroke-linejoin:round; stroke-width:4; stroke-opacity:1; fill:none" points="340.655,1652.6 340.655,127.792 "/>
<polyline clip-path="url(#clip960)" style="stroke:#000000; stroke-linecap:round; stroke-linejoin:round; stroke-width:4; stroke-opacity:1; fill:none" points="3792.76,1652.6 3792.76,127.792 "/>
<polyline clip-path="url(#clip960)" style="stroke:#000000; stroke-linecap:round; stroke-linejoin:round; stroke-width:4; stroke-opacity:1; fill:none" points="340.655,1652.6 359.552,1652.6 "/>
<polyline clip-path="url(#clip960)" style="stroke:#000000; stroke-linecap:round; stroke-linejoin:round; stroke-width:4; stroke-opacity:1; fill:none" points="340.655,1359.76 359.552,1359.76 "/>
<polyline clip-path="url(#clip960)" style="stroke:#000000; stroke-linecap:round; stroke-linejoin:round; stroke-width:4; stroke-opacity:1; fill:none" points="340.655,1066.92 359.552,1066.92 "/>
<polyline clip-path="url(#clip960)" style="stroke:#000000; stroke-linecap:round; stroke-linejoin:round; stroke-width:4; stroke-opacity:1; fill:none" points="340.655,774.075 359.552,774.075 "/>
<polyline clip-path="url(#clip960)" style="stroke:#000000; stroke-linecap:round; stroke-linejoin:round; stroke-width:4; stroke-opacity:1; fill:none" points="340.655,481.233 359.552,481.233 "/>
<polyline clip-path="url(#clip960)" style="stroke:#000000; stroke-linecap:round; stroke-linejoin:round; stroke-width:4; stroke-opacity:1; fill:none" points="340.655,188.392 359.552,188.392 "/>
<path clip-path="url(#clip960)" d="M251.113 1654.25 Q251.113 1643.1 253.929 1637.02 Q257.857 1627.98 267.121 1627.98 Q269.085 1627.98 271.123 1628.53 Q273.198 1629.05 275.792 1631.09 Q278.423 1633.13 280.016 1636.46 Q283.055 1642.91 283.055 1654.25 Q283.055 1665.33 280.239 1671.37 Q276.125 1680.19 267.047 1680.19 Q263.638 1680.19 260.155 1678.45 Q256.709 1676.7 254.522 1672.52 Q251.113 1666.25 251.113 1654.25 M257.413 1653.32 Q257.413 1664.77 258.228 1669.33 Q259.154 1674.26 261.674 1676.41 Q264.231 1678.52 267.047 1678.52 Q270.085 1678.52 272.605 1676.26 Q275.162 1673.96 275.94 1669.03 Q276.792 1664.18 276.755 1653.32 Q276.755 1642.76 276.014 1638.54 Q275.014 1633.61 272.346 1631.65 Q269.715 1629.64 267.047 1629.64 Q266.046 1629.64 264.972 1629.94 Q263.934 1630.24 262.415 1631.09 Q260.896 1631.94 259.71 1634.05 Q258.561 1636.17 258.006 1639.35 Q257.413 1643.47 257.413 1653.32 Z" fill="#000000" fill-rule="nonzero" fill-opacity="1" /><path clip-path="url(#clip960)" d="M179.004 1342.36 L179.004 1339.99 Q188.12 1339.99 192.826 1335.13 Q194.123 1335.13 194.345 1335.43 Q194.567 1335.73 194.567 1337.1 L194.567 1379.68 Q194.567 1381.94 195.679 1382.64 Q196.791 1383.34 201.645 1383.34 L204.053 1383.34 L204.053 1385.68 Q201.385 1385.46 191.751 1385.46 Q182.117 1385.46 179.486 1385.68 L179.486 1383.34 L181.894 1383.34 Q186.675 1383.34 187.823 1382.68 Q188.972 1381.97 188.972 1379.68 L188.972 1340.36 Q185.007 1342.36 179.004 1342.36 Z" fill="#000000" fill-rule="nonzero" fill-opacity="1" /><path clip-path="url(#clip960)" d="M213.169 1361.41 Q213.169 1350.25 215.985 1344.18 Q219.913 1335.13 229.177 1335.13 Q231.141 1335.13 233.179 1335.69 Q235.254 1336.21 237.848 1338.25 Q240.478 1340.29 242.072 1343.62 Q245.11 1350.07 245.11 1361.41 Q245.11 1372.49 242.294 1378.53 Q238.181 1387.35 229.103 1387.35 Q225.694 1387.35 222.21 1385.6 Q218.764 1383.86 216.578 1379.68 Q213.169 1373.41 213.169 1361.41 M219.468 1360.48 Q219.468 1371.93 220.283 1376.49 Q221.21 1381.42 223.73 1383.57 Q226.286 1385.68 229.103 1385.68 Q232.141 1385.68 234.661 1383.42 Q237.218 1381.12 237.996 1376.19 Q238.848 1371.34 238.811 1360.48 Q238.811 1349.92 238.07 1345.7 Q237.069 1340.77 234.401 1338.8 Q231.771 1336.8 229.103 1336.8 Q228.102 1336.8 227.027 1337.1 Q225.99 1337.4 224.471 1338.25 Q222.951 1339.1 221.766 1341.21 Q220.617 1343.32 220.061 1346.51 Q219.468 1350.62 219.468 1360.48 Z" fill="#000000" fill-rule="nonzero" fill-opacity="1" /><path clip-path="url(#clip960)" d="M251.113 1361.41 Q251.113 1350.25 253.929 1344.18 Q257.857 1335.13 267.121 1335.13 Q269.085 1335.13 271.123 1335.69 Q273.198 1336.21 275.792 1338.25 Q278.423 1340.29 280.016 1343.62 Q283.055 1350.07 283.055 1361.41 Q283.055 1372.49 280.239 1378.53 Q276.125 1387.35 267.047 1387.35 Q263.638 1387.35 260.155 1385.6 Q256.709 1383.86 254.522 1379.68 Q251.113 1373.41 251.113 1361.41 M257.413 1360.48 Q257.413 1371.93 258.228 1376.49 Q259.154 1381.42 261.674 1383.57 Q264.231 1385.68 267.047 1385.68 Q270.085 1385.68 272.605 1383.42 Q275.162 1381.12 275.94 1376.19 Q276.792 1371.34 276.755 1360.48 Q276.755 1349.92 276.014 1345.7 Q275.014 1340.77 272.346 1338.8 Q269.715 1336.8 267.047 1336.8 Q266.046 1336.8 264.972 1337.1 Q263.934 1337.4 262.415 1338.25 Q260.896 1339.1 259.71 1341.21 Q258.561 1343.32 258.006 1346.51 Q257.413 1350.62 257.413 1360.48 Z" fill="#000000" fill-rule="nonzero" fill-opacity="1" /><path clip-path="url(#clip960)" d="M176.04 1092.84 Q176.04 1091.47 176.151 1091.06 Q176.299 1090.65 176.892 1090.02 L191.455 1073.79 Q199.421 1064.82 199.421 1057 Q199.421 1051.93 196.754 1048.3 Q194.123 1044.66 189.268 1044.66 Q185.933 1044.66 183.117 1046.7 Q180.301 1048.74 179.004 1052.37 Q179.226 1052.3 180.005 1052.3 Q181.894 1052.3 182.932 1053.48 Q184.007 1054.67 184.007 1056.26 Q184.007 1058.3 182.673 1059.3 Q181.376 1060.27 180.079 1060.27 Q179.56 1060.27 178.856 1060.15 Q178.189 1060.04 177.114 1059.01 Q176.04 1057.93 176.04 1056.04 Q176.04 1050.74 180.042 1046.52 Q184.081 1042.29 190.232 1042.29 Q197.198 1042.29 201.756 1046.44 Q206.351 1050.56 206.351 1057 Q206.351 1059.26 205.647 1061.34 Q204.98 1063.38 204.053 1064.97 Q203.164 1066.56 200.718 1069.12 Q198.273 1071.68 196.309 1073.49 Q194.345 1075.31 189.935 1079.16 L181.894 1086.98 L195.568 1086.98 Q202.238 1086.98 202.756 1086.39 Q203.498 1085.31 204.424 1079.64 L206.351 1079.64 L204.202 1092.84 L176.04 1092.84 Z" fill="#000000" fill-rule="nonzero" fill-opacity="1" /><path clip-path="url(#clip960)" d="M213.169 1068.57 Q213.169 1057.41 215.985 1051.33 Q219.913 1042.29 229.177 1042.29 Q231.141 1042.29 233.179 1042.85 Q235.254 1043.37 237.848 1045.41 Q240.478 1047.44 242.072 1050.78 Q245.11 1057.23 245.11 1068.57 Q245.11 1079.64 242.294 1085.68 Q238.181 1094.5 229.103 1094.5 Q225.694 1094.5 222.21 1092.76 Q218.764 1091.02 216.578 1086.83 Q213.169 1080.57 213.169 1068.57 M219.468 1067.64 Q219.468 1079.09 220.283 1083.65 Q221.21 1088.58 223.73 1090.72 Q226.286 1092.84 229.103 1092.84 Q232.141 1092.84 234.661 1090.58 Q237.218 1088.28 237.996 1083.35 Q238.848 1078.5 238.811 1067.64 Q238.811 1057.08 238.07 1052.85 Q237.069 1047.93 234.401 1045.96 Q231.771 1043.96 229.103 1043.96 Q228.102 1043.96 227.027 1044.26 Q225.99 1044.55 224.471 1045.41 Q222.951 1046.26 221.766 1048.37 Q220.617 1050.48 220.061 1053.67 Q219.468 1057.78 219.468 1067.64 Z" fill="#000000" fill-rule="nonzero" fill-opacity="1" /><path clip-path="url(#clip960)" d="M251.113 1068.57 Q251.113 1057.41 253.929 1051.33 Q257.857 1042.29 267.121 1042.29 Q269.085 1042.29 271.123 1042.85 Q273.198 1043.37 275.792 1045.41 Q278.423 1047.44 280.016 1050.78 Q283.055 1057.23 283.055 1068.57 Q283.055 1079.64 280.239 1085.68 Q276.125 1094.5 267.047 1094.5 Q263.638 1094.5 260.155 1092.76 Q256.709 1091.02 254.522 1086.83 Q251.113 1080.57 251.113 1068.57 M257.413 1067.64 Q257.413 1079.09 258.228 1083.65 Q259.154 1088.58 261.674 1090.72 Q264.231 1092.84 267.047 1092.84 Q270.085 1092.84 272.605 1090.58 Q275.162 1088.28 275.94 1083.35 Q276.792 1078.5 276.755 1067.64 Q276.755 1057.08 276.014 1052.85 Q275.014 1047.93 272.346 1045.96 Q269.715 1043.96 267.047 1043.96 Q266.046 1043.96 264.972 1044.26 Q263.934 1044.55 262.415 1045.41 Q260.896 1046.26 259.71 1048.37 Q258.561 1050.48 258.006 1053.67 Q257.413 1057.78 257.413 1067.64 Z" fill="#000000" fill-rule="nonzero" fill-opacity="1" /><path clip-path="url(#clip960)" d="M175.447 789.768 Q175.447 787.507 176.744 786.433 Q178.041 785.358 179.708 785.358 Q181.45 785.358 182.673 786.507 Q183.932 787.618 183.932 789.582 Q183.932 791.694 182.45 792.88 Q181.005 794.066 178.93 793.77 Q180.746 796.808 184.081 798.179 Q187.453 799.55 190.565 799.55 Q193.826 799.55 196.457 796.734 Q199.125 793.918 199.125 787.026 Q199.125 781.171 196.828 777.799 Q194.567 774.427 190.084 774.427 L186.749 774.427 Q185.6 774.427 185.266 774.316 Q184.933 774.205 184.933 773.575 Q184.933 772.833 186.082 772.685 Q187.23 772.685 189.046 772.463 Q193.456 772.315 195.79 768.498 Q197.902 764.941 197.902 759.864 Q197.902 755.232 195.679 753.305 Q193.493 751.342 190.639 751.342 Q187.971 751.342 185.044 752.453 Q182.117 753.565 180.523 756.048 Q185.229 756.048 185.229 759.864 Q185.229 761.532 184.155 762.643 Q183.117 763.718 181.376 763.718 Q179.708 763.718 178.597 762.68 Q177.485 761.606 177.485 759.79 Q177.485 755.455 181.339 752.453 Q185.229 749.452 190.936 749.452 Q196.568 749.452 200.718 752.416 Q204.906 755.381 204.906 759.938 Q204.906 764.422 201.941 768.09 Q198.977 771.759 194.271 773.278 Q200.051 774.427 203.498 778.355 Q206.944 782.245 206.944 787.026 Q206.944 792.954 202.275 797.327 Q197.606 801.662 190.788 801.662 Q184.488 801.662 179.968 798.253 Q175.447 794.844 175.447 789.768 Z" fill="#000000" fill-rule="nonzero" fill-opacity="1" /><path clip-path="url(#clip960)" d="M213.169 775.724 Q213.169 764.57 215.985 758.493 Q219.913 749.452 229.177 749.452 Q231.141 749.452 233.179 750.008 Q235.254 750.526 237.848 752.564 Q240.478 754.602 242.072 757.937 Q245.11 764.385 245.11 775.724 Q245.11 786.803 242.294 792.843 Q238.181 801.662 229.103 801.662 Q225.694 801.662 222.21 799.921 Q218.764 798.179 216.578 793.992 Q213.169 787.73 213.169 775.724 M219.468 774.797 Q219.468 786.247 220.283 790.805 Q221.21 795.733 223.73 797.883 Q226.286 799.995 229.103 799.995 Q232.141 799.995 234.661 797.734 Q237.218 795.437 237.996 790.509 Q238.848 785.655 238.811 774.797 Q238.811 764.237 238.07 760.012 Q237.069 755.084 234.401 753.12 Q231.771 751.119 229.103 751.119 Q228.102 751.119 227.027 751.416 Q225.99 751.712 224.471 752.564 Q222.951 753.417 221.766 755.529 Q220.617 757.641 220.061 760.828 Q219.468 764.941 219.468 774.797 Z" fill="#000000" fill-rule="nonzero" fill-opacity="1" /><path clip-path="url(#clip960)" d="M251.113 775.724 Q251.113 764.57 253.929 758.493 Q257.857 749.452 267.121 749.452 Q269.085 749.452 271.123 750.008 Q273.198 750.526 275.792 752.564 Q278.423 754.602 280.016 757.937 Q283.055 764.385 283.055 775.724 Q283.055 786.803 280.239 792.843 Q276.125 801.662 267.047 801.662 Q263.638 801.662 260.155 799.921 Q256.709 798.179 254.522 793.992 Q251.113 787.73 251.113 775.724 M257.413 774.797 Q257.413 786.247 258.228 790.805 Q259.154 795.733 261.674 797.883 Q264.231 799.995 267.047 799.995 Q270.085 799.995 272.605 797.734 Q275.162 795.437 275.94 790.509 Q276.792 785.655 276.755 774.797 Q276.755 764.237 276.014 760.012 Q275.014 755.084 272.346 753.12 Q269.715 751.119 267.047 751.119 Q266.046 751.119 264.972 751.416 Q263.934 751.712 262.415 752.564 Q260.896 753.417 259.71 755.529 Q258.561 757.641 258.006 760.828 Q257.413 764.941 257.413 774.797 Z" fill="#000000" fill-rule="nonzero" fill-opacity="1" /><path clip-path="url(#clip960)" d="M174.372 494.629 L174.372 492.294 L197.68 456.684 Q198.273 455.758 199.199 455.795 Q200.051 455.795 200.237 456.128 Q200.422 456.462 200.422 457.759 L200.422 492.294 L208.018 492.294 L208.018 494.629 L200.422 494.629 L200.422 501.224 Q200.422 503.411 201.311 504.115 Q202.238 504.819 206.166 504.819 L207.759 504.819 L207.759 507.153 Q204.646 506.931 197.458 506.931 Q190.306 506.931 187.193 507.153 L187.193 504.819 L188.787 504.819 Q192.715 504.819 193.641 504.152 Q194.567 503.448 194.567 501.224 L194.567 494.629 L174.372 494.629 M176.521 492.294 L195.012 492.294 L195.012 463.984 L176.521 492.294 Z" fill="#000000" fill-rule="nonzero" fill-opacity="1" /><path clip-path="url(#clip960)" d="M213.169 482.882 Q213.169 471.729 215.985 465.652 Q219.913 456.61 229.177 456.61 Q231.141 456.61 233.179 457.166 Q235.254 457.685 237.848 459.723 Q240.478 461.761 242.072 465.096 Q245.11 471.543 245.11 482.882 Q245.11 493.962 242.294 500.002 Q238.181 508.821 229.103 508.821 Q225.694 508.821 222.21 507.079 Q218.764 505.338 216.578 501.15 Q213.169 494.888 213.169 482.882 M219.468 481.956 Q219.468 493.406 220.283 497.964 Q221.21 502.892 223.73 505.041 Q226.286 507.153 229.103 507.153 Q232.141 507.153 234.661 504.893 Q237.218 502.595 237.996 497.667 Q238.848 492.813 238.811 481.956 Q238.811 471.395 238.07 467.171 Q237.069 462.243 234.401 460.279 Q231.771 458.278 229.103 458.278 Q228.102 458.278 227.027 458.574 Q225.99 458.87 224.471 459.723 Q222.951 460.575 221.766 462.687 Q220.617 464.799 220.061 467.986 Q219.468 472.099 219.468 481.956 Z" fill="#000000" fill-rule="nonzero" fill-opacity="1" /><path clip-path="url(#clip960)" d="M251.113 482.882 Q251.113 471.729 253.929 465.652 Q257.857 456.61 267.121 456.61 Q269.085 456.61 271.123 457.166 Q273.198 457.685 275.792 459.723 Q278.423 461.761 280.016 465.096 Q283.055 471.543 283.055 482.882 Q283.055 493.962 280.239 500.002 Q276.125 508.821 267.047 508.821 Q263.638 508.821 260.155 507.079 Q256.709 505.338 254.522 501.15 Q251.113 494.888 251.113 482.882 M257.413 481.956 Q257.413 493.406 258.228 497.964 Q259.154 502.892 261.674 505.041 Q264.231 507.153 267.047 507.153 Q270.085 507.153 272.605 504.893 Q275.162 502.595 275.94 497.667 Q276.792 492.813 276.755 481.956 Q276.755 471.395 276.014 467.171 Q275.014 462.243 272.346 460.279 Q269.715 458.278 267.047 458.278 Q266.046 458.278 264.972 458.574 Q263.934 458.87 262.415 459.723 Q260.896 460.575 259.71 462.687 Q258.561 464.799 258.006 467.986 Q257.413 472.099 257.413 481.956 Z" fill="#000000" fill-rule="nonzero" fill-opacity="1" /><path clip-path="url(#clip960)" d="M176.04 202.083 Q176.04 199.823 177.263 198.971 Q178.485 198.081 179.782 198.081 Q181.524 198.081 182.524 199.193 Q183.562 200.268 183.562 201.787 Q183.562 203.306 182.524 204.418 Q181.524 205.492 179.782 205.492 Q178.93 205.492 178.485 205.344 Q179.486 208.827 182.524 211.347 Q185.6 213.867 189.639 213.867 Q194.716 213.867 197.754 208.939 Q199.57 205.752 199.57 198.526 Q199.57 192.153 198.199 188.966 Q196.087 184.112 191.751 184.112 Q185.6 184.112 181.969 189.411 Q181.524 190.078 181.005 190.115 Q180.264 190.115 180.079 189.707 Q179.931 189.262 179.931 188.114 L179.931 165.658 Q179.931 163.843 180.672 163.843 Q180.968 163.843 181.598 164.065 Q186.378 166.177 191.677 166.214 Q197.124 166.214 202.015 163.991 Q202.386 163.769 202.608 163.769 Q203.349 163.769 203.386 164.621 Q203.386 164.917 202.756 165.807 Q202.164 166.659 200.867 167.808 Q199.57 168.919 197.902 169.994 Q196.235 171.068 193.789 171.809 Q191.381 172.514 188.713 172.514 Q185.526 172.514 182.265 171.513 L182.265 186.298 Q186.193 182.444 191.899 182.444 Q197.976 182.444 202.164 187.336 Q206.351 192.227 206.351 199.045 Q206.351 206.197 201.385 211.088 Q196.457 215.979 189.787 215.979 Q183.71 215.979 179.856 211.644 Q176.04 207.308 176.04 202.083 Z" fill="#000000" fill-rule="nonzero" fill-opacity="1" /><path clip-path="url(#clip960)" d="M213.169 190.041 Q213.169 178.887 215.985 172.81 Q219.913 163.769 229.177 163.769 Q231.141 163.769 233.179 164.324 Q235.254 164.843 237.848 166.881 Q240.478 168.919 242.072 172.254 Q245.11 178.702 245.11 190.041 Q245.11 201.12 242.294 207.16 Q238.181 215.979 229.103 215.979 Q225.694 215.979 222.21 214.237 Q218.764 212.496 216.578 208.309 Q213.169 202.046 213.169 190.041 M219.468 189.114 Q219.468 200.564 220.283 205.122 Q221.21 210.05 223.73 212.199 Q226.286 214.312 229.103 214.312 Q232.141 214.312 234.661 212.051 Q237.218 209.754 237.996 204.825 Q238.848 199.971 238.811 189.114 Q238.811 178.553 238.07 174.329 Q237.069 169.401 234.401 167.437 Q231.771 165.436 229.103 165.436 Q228.102 165.436 227.027 165.732 Q225.99 166.029 224.471 166.881 Q222.951 167.733 221.766 169.846 Q220.617 171.958 220.061 175.144 Q219.468 179.258 219.468 189.114 Z" fill="#000000" fill-rule="nonzero" fill-opacity="1" /><path clip-path="url(#clip960)" d="M251.113 190.041 Q251.113 178.887 253.929 172.81 Q257.857 163.769 267.121 163.769 Q269.085 163.769 271.123 164.324 Q273.198 164.843 275.792 166.881 Q278.423 168.919 280.016 172.254 Q283.055 178.702 283.055 190.041 Q283.055 201.12 280.239 207.16 Q276.125 215.979 267.047 215.979 Q263.638 215.979 260.155 214.237 Q256.709 212.496 254.522 208.309 Q251.113 202.046 251.113 190.041 M257.413 189.114 Q257.413 200.564 258.228 205.122 Q259.154 210.05 261.674 212.199 Q264.231 214.312 267.047 214.312 Q270.085 214.312 272.605 212.051 Q275.162 209.754 275.94 204.825 Q276.792 199.971 276.755 189.114 Q276.755 178.553 276.014 174.329 Q275.014 169.401 272.346 167.437 Q269.715 165.436 267.047 165.436 Q266.046 165.436 264.972 165.732 Q263.934 166.029 262.415 166.881 Q260.896 167.733 259.71 169.846 Q258.561 171.958 258.006 175.144 Q257.413 179.258 257.413 189.114 Z" fill="#000000" fill-rule="nonzero" fill-opacity="1" /><path clip-path="url(#clip960)" d="M96.0363 1314.23 L92.9237 1314.23 Q92.726 1305.24 86.1055 1302.91 L25.6317 1281.97 Q24.3965 1281.57 24.0013 1281.13 Q23.606 1280.68 23.606 1279.55 Q23.606 1278.95 23.7048 1278.61 Q23.8037 1278.21 24.1495 1277.96 Q24.4954 1277.72 24.693 1277.62 Q24.8906 1277.52 25.6317 1277.22 L88.8723 1255.39 Q91.3921 1254.6 92.1826 1252.96 Q92.9237 1251.33 92.9237 1246.74 L92.9237 1244.96 L96.0363 1244.96 Q95.7398 1251.33 95.7398 1258.2 Q95.7398 1269.12 96.0363 1272.78 L92.9237 1272.78 Q92.9237 1264.38 89.8604 1264.38 Q89.6628 1264.38 88.4276 1264.67 L72.9633 1270.01 L72.9633 1295.01 L86.2043 1299.7 Q86.5996 1299.9 87.736 1299.9 Q89.8604 1299.9 91.3921 1297.92 Q92.9237 1295.95 92.9237 1292.29 L96.0363 1292.29 Q95.7398 1302.03 95.7398 1303.95 Q95.7398 1307.26 96.0363 1314.23 M69.8507 1293.92 L69.8507 1271.15 L36.9458 1282.56 L69.8507 1293.92 Z" fill="#000000" fill-rule="nonzero" fill-opacity="1" /><path clip-path="url(#clip960)" d="M90.5027 1234.54 Q83.7834 1240.96 74.1985 1240.96 Q64.5642 1240.96 57.6473 1234.63 Q50.6809 1228.31 50.6809 1219.02 Q50.6809 1212.85 53.6453 1208.2 Q56.5603 1203.56 61.5504 1203.56 Q63.7737 1203.56 65.0583 1204.89 Q66.2934 1206.18 66.2934 1208.2 Q66.2934 1210.33 65.0089 1211.61 Q63.6749 1212.85 61.6492 1212.85 Q60.7599 1212.85 59.8706 1212.55 Q58.9812 1212.25 58.0425 1211.17 Q57.1038 1210.03 56.9556 1208.1 Q53.2501 1211.71 53.2501 1218.73 Q53.2501 1218.82 53.2501 1218.92 Q53.2501 1224.06 58.0919 1228.31 Q62.9338 1232.56 74.0009 1232.56 Q79.7815 1232.56 84.0305 1231.18 Q88.23 1229.74 90.4039 1227.42 Q92.5778 1225.1 93.6154 1222.83 Q94.6035 1220.55 94.6035 1218.33 Q94.6035 1208.4 83.981 1205.04 Q82.9929 1204.74 82.9929 1203.76 Q82.9929 1202.42 83.981 1202.42 Q84.4751 1202.42 85.7597 1202.82 Q87.0443 1203.21 89.0699 1204.45 Q91.0956 1205.68 92.8743 1207.46 Q94.6035 1209.19 95.8881 1212.3 Q97.1726 1215.37 97.1726 1219.22 Q97.1726 1228.11 90.5027 1234.54 Z" fill="#000000" fill-rule="nonzero" fill-opacity="1" /><path clip-path="url(#clip960)" d="M55.5722 1197.58 L53.3489 1197.58 Q53.1513 1192.94 49.8904 1189.87 Q46.5802 1186.76 42.5288 1185.72 Q38.4775 1184.64 33.7838 1184.54 L33.7838 1182.02 L52.4102 1182.02 L52.4102 1167.54 L55.5722 1167.54 L55.5722 1182.02 L83.6846 1182.02 Q94.6035 1182.02 94.6035 1175.2 Q94.6035 1172.28 91.6391 1170.36 Q88.6253 1168.43 83.2893 1168.43 L77.7064 1168.43 L77.7064 1165.91 L83.487 1165.91 Q88.9711 1165.91 93.0719 1168.43 Q97.1726 1170.95 97.1726 1175.94 Q97.1726 1177.77 96.6786 1179.6 Q96.2339 1181.37 95.0481 1183.75 Q93.813 1186.07 90.8486 1187.55 Q87.8348 1188.98 83.487 1188.98 L55.5722 1188.98 L55.5722 1197.58 Z" fill="#000000" fill-rule="nonzero" fill-opacity="1" /><path clip-path="url(#clip960)" d="M96.0363 1156.92 L92.9237 1156.92 Q92.9237 1151.53 92.2814 1150.3 Q91.5897 1149.06 88.3288 1149.06 L61.1057 1149.06 Q57.3508 1149.06 56.4615 1150.35 Q55.5722 1151.58 55.5722 1156.52 L52.4102 1156.52 L51.3232 1142.39 L88.4276 1142.39 Q91.4415 1142.39 92.1826 1141.31 Q92.9237 1140.22 92.9237 1135.28 L96.0363 1135.28 Q95.7398 1145.6 95.7398 1145.8 Q95.7398 1147.18 96.0363 1156.92 M33.685 1152.67 Q31.6593 1152.67 30.0289 1151.14 Q28.3491 1149.56 28.3491 1147.33 Q28.3491 1145.11 29.8807 1143.53 Q31.3629 1141.95 33.7344 1141.95 Q36.0565 1141.95 37.5881 1143.53 Q39.0703 1145.11 39.0703 1147.33 Q39.0703 1149.66 37.4399 1151.19 Q35.8095 1152.67 33.685 1152.67 Z" fill="#000000" fill-rule="nonzero" fill-opacity="1" /><path clip-path="url(#clip960)" d="M55.5722 1130.34 L52.4102 1130.34 Q52.7066 1125.79 52.7066 1120.51 Q52.7066 1118.58 52.4102 1109.49 L55.5722 1109.49 Q55.5722 1115.27 58.1907 1115.27 Q58.586 1115.27 59.92 1114.68 L88.1312 1103.31 L62.3409 1092.99 Q60.6117 1092.39 59.92 1092.39 Q58.1907 1092.39 56.9556 1093.58 Q55.671 1094.72 55.5722 1097.23 L52.4102 1097.23 Q52.7066 1092.1 52.7066 1088.44 Q52.7066 1084.29 52.4102 1080.88 L55.5722 1080.88 Q55.5722 1083.89 56.9556 1086.02 Q58.2896 1088.14 59.4753 1088.84 Q60.6117 1089.48 62.3409 1090.17 L95.2458 1103.41 Q97.1726 1104.2 97.1726 1105.54 Q97.1726 1106.42 96.7774 1106.82 Q96.4315 1107.17 95.2458 1107.66 L59.3271 1122.23 Q56.8073 1123.22 56.2145 1124.51 Q55.5722 1125.79 55.5722 1130.34 Z" fill="#000000" fill-rule="nonzero" fill-opacity="1" /><path clip-path="url(#clip960)" d="M73.7539 1078.95 Q64.2184 1078.95 57.4496 1072.83 Q50.6809 1066.7 50.6809 1057.91 Q50.6809 1049.01 56.4615 1044.42 Q62.2421 1039.77 70.5424 1039.77 Q72.074 1039.77 72.3705 1040.17 Q72.6669 1040.57 72.6669 1042.29 L72.6669 1070.56 Q82.9929 1070.56 87.8348 1067.49 Q94.6035 1063.24 94.6035 1056.08 Q94.6035 1055.09 94.4059 1053.91 Q94.2082 1052.72 93.3683 1050.3 Q92.479 1047.88 90.1569 1045.75 Q87.8348 1043.63 84.1787 1042.39 Q82.7459 1042.1 82.7953 1041.11 Q82.7953 1039.77 83.981 1039.77 Q84.8704 1039.77 86.896 1040.76 Q88.8723 1041.7 91.2438 1043.53 Q93.6154 1045.36 95.394 1048.91 Q97.1726 1052.42 97.1726 1056.67 Q97.1726 1065.57 90.4533 1072.28 Q83.6846 1078.95 73.7539 1078.95 M70.5424 1070.46 L70.5424 1046.44 Q68.4179 1046.44 66.0464 1046.84 Q63.6749 1047.19 60.414 1048.27 Q57.1038 1049.31 55.0287 1051.78 Q52.9536 1054.25 52.9536 1057.91 Q52.9536 1059.54 53.6453 1061.32 Q54.337 1063.05 56.0168 1065.17 Q57.6967 1067.29 61.501 1068.78 Q65.3053 1070.26 70.5424 1070.46 Z" fill="#000000" fill-rule="nonzero" fill-opacity="1" /><path clip-path="url(#clip960)" d="M112.538 1000.4 Q112.538 995.012 111.846 993.777 Q111.204 992.493 107.993 992.493 L60.6117 992.493 Q57.252 992.493 56.4121 993.777 Q55.5722 995.012 55.5722 1000.4 L52.4102 1000.4 L51.3232 985.823 L57.9931 985.823 Q51.3232 979.746 51.3232 971.643 Q51.3232 963.046 57.9931 956.771 Q64.663 950.497 74.1985 950.497 Q83.8328 950.497 90.5027 957.167 Q97.1726 963.837 97.1726 973.076 Q97.1726 978.115 94.6035 981.524 Q91.9849 984.884 90.0581 985.526 L90.9968 985.526 L107.993 985.526 Q111.254 985.526 111.896 984.242 Q112.538 982.957 112.538 977.621 L115.651 977.621 Q115.354 988.244 115.354 989.034 Q115.354 990.022 115.651 1000.4 L112.538 1000.4 M84.5245 985.526 Q86.0561 985.526 86.5996 985.329 Q87.1431 985.082 88.7735 984.093 Q94.8999 980.091 94.8999 973.57 Q94.8999 973.52 94.8999 973.471 Q94.8999 967.69 89.0205 963.293 Q83.0917 958.896 74.1985 958.896 Q65.7006 958.896 59.7718 962.898 Q53.8429 966.9 53.8429 972.433 Q53.8429 976.386 55.9674 979.844 Q58.0919 983.303 61.9456 985.526 L84.5245 985.526 Z" fill="#000000" fill-rule="nonzero" fill-opacity="1" /><path clip-path="url(#clip960)" d="M90.6015 934.785 Q83.981 941.455 74.3961 941.455 Q64.7618 941.455 57.7461 934.934 Q50.6809 928.363 50.6809 918.975 Q50.6809 909.786 57.6967 903.215 Q64.663 896.594 74.3961 896.594 Q83.9316 896.594 90.5521 903.264 Q97.1726 909.884 97.1726 919.074 Q97.1726 928.066 90.6015 934.785 M73.5562 933.056 Q83.3882 933.056 87.8348 930.487 Q94.6035 926.535 94.6035 918.975 Q94.6035 915.22 92.5778 912.108 Q90.5521 908.946 87.1431 907.217 Q82.6965 904.993 73.5562 904.993 Q63.8231 904.993 59.5247 907.661 Q52.9536 911.614 52.9536 919.074 Q52.9536 922.335 54.6829 925.546 Q56.3627 928.708 59.7223 930.635 Q64.1689 933.056 73.5562 933.056 Z" fill="#000000" fill-rule="nonzero" fill-opacity="1" /><path clip-path="url(#clip960)" d="M55.5722 894.667 L52.4102 894.667 Q52.7066 889.183 52.7066 885.28 Q52.7066 883.353 52.4102 874.213 L55.5722 874.213 Q55.5722 880.191 58.2896 880.191 Q58.8824 880.191 60.1176 879.697 L87.1431 870.063 L62.6373 861.367 Q57.6967 863.195 57.1038 863.689 Q55.5722 864.924 55.5722 870.063 L52.4102 870.063 Q52.7066 865.517 52.7066 861.071 Q52.7066 859.341 52.4102 850.547 L55.5722 850.547 Q55.5722 856.525 58.2896 856.525 Q58.6848 856.525 60.2164 856.031 L88.4276 846.002 L62.5385 836.812 Q61.2045 836.318 60.414 836.268 Q58.1907 836.268 56.9556 837.849 Q55.671 839.431 55.5722 842.148 L52.4102 842.148 Q52.7066 836.367 52.7066 832.761 Q52.7066 828.709 52.4102 825.35 L55.5722 825.35 Q55.7698 831.624 62.0445 833.848 L95.2458 845.705 Q97.0738 846.842 97.1726 847.731 Q97.1726 849.065 95.2458 849.757 L66.4911 860.083 L95.147 870.31 Q96.3821 870.705 96.7774 871.051 Q97.1726 871.397 97.1726 872.335 Q97.1726 873.225 96.6292 873.62 Q96.1351 874.015 94.8999 874.46 L59.0801 887.207 Q56.7579 888.096 56.1651 889.43 Q55.5722 890.715 55.5722 894.667 Z" fill="#000000" fill-rule="nonzero" fill-opacity="1" /><path clip-path="url(#clip960)" d="M73.7539 823.472 Q64.2184 823.472 57.4496 817.346 Q50.6809 811.219 50.6809 802.425 Q50.6809 793.532 56.4615 788.937 Q62.2421 784.293 70.5424 784.293 Q72.074 784.293 72.3705 784.688 Q72.6669 785.083 72.6669 786.812 L72.6669 815.073 Q82.9929 815.073 87.8348 812.01 Q94.6035 807.761 94.6035 800.597 Q94.6035 799.609 94.4059 798.423 Q94.2082 797.237 93.3683 794.816 Q92.479 792.395 90.1569 790.271 Q87.8348 788.146 84.1787 786.911 Q82.7459 786.615 82.7953 785.627 Q82.7953 784.293 83.981 784.293 Q84.8704 784.293 86.896 785.281 Q88.8723 786.219 91.2438 788.048 Q93.6154 789.876 95.394 793.433 Q97.1726 796.941 97.1726 801.19 Q97.1726 810.083 90.4533 816.802 Q83.6846 823.472 73.7539 823.472 M70.5424 814.974 L70.5424 790.963 Q68.4179 790.963 66.0464 791.358 Q63.6749 791.704 60.414 792.791 Q57.1038 793.828 55.0287 796.298 Q52.9536 798.769 52.9536 802.425 Q52.9536 804.055 53.6453 805.834 Q54.337 807.563 56.0168 809.688 Q57.6967 811.812 61.501 813.294 Q65.3053 814.777 70.5424 814.974 Z" fill="#000000" fill-rule="nonzero" fill-opacity="1" /><path clip-path="url(#clip960)" d="M96.0363 778.561 L92.9237 778.561 Q92.9237 773.176 92.2814 771.941 Q91.5897 770.656 88.3288 770.656 L61.2045 770.656 Q57.4496 770.656 56.5109 771.99 Q55.5722 773.275 55.5722 778.561 L52.4102 778.561 L51.3232 764.481 L62.4397 764.481 Q58.0919 763.048 54.7323 760.034 Q51.3232 756.971 51.3232 752.03 Q51.3232 748.769 53.1513 746.694 Q54.9793 744.57 57.499 744.57 Q59.7223 744.57 60.8587 745.953 Q61.9456 747.287 61.9456 748.917 Q61.9456 750.745 60.8093 752.03 Q59.6235 753.265 57.5979 753.265 Q56.3627 753.265 55.424 752.722 Q54.4358 752.129 54.09 751.684 Q53.7441 751.24 53.6453 750.943 Q53.5465 751.141 53.5465 752.03 Q53.5465 757.613 59.1295 760.824 Q64.663 763.986 72.5681 763.986 L88.1312 763.986 Q91.0462 763.986 91.9849 762.801 Q92.9237 761.566 92.9237 756.279 L92.9237 754.155 L96.0363 754.155 Q95.7398 758.206 95.7398 767 Q95.7398 768.235 95.7892 770.162 Q95.8387 772.089 95.9375 774.609 Q96.0363 777.129 96.0363 778.561 Z" fill="#000000" fill-rule="nonzero" fill-opacity="1" /><path clip-path="url(#clip960)" d="M121.333 697.683 L20.1476 697.683 L20.1476 682.416 L22.4697 682.416 L22.4697 690.914 L119.01 690.914 L119.01 682.416 L121.333 682.416 L121.333 697.683 Z" fill="#000000" fill-rule="nonzero" fill-opacity="1" /><path clip-path="url(#clip960)" d="M96.0363 676.339 L92.9237 676.339 Q92.9237 672.683 92.232 670.361 Q91.4909 668.039 90.1569 667.199 Q88.7735 666.309 87.8842 666.112 Q86.9454 665.914 85.4138 665.914 L34.8214 665.914 Q31.9064 665.914 31.017 667.199 Q30.0783 668.434 30.0783 673.918 L30.0783 676.339 L26.9163 676.339 L26.9163 659.244 Q26.9163 657.416 27.2621 656.922 Q27.5586 656.428 29.1396 655.687 L85.8091 633.75 L28.8431 611.616 Q27.4104 611.122 27.1633 610.677 Q26.9163 610.183 26.9163 608.256 L26.9163 591.162 L30.0783 591.162 L30.0783 593.583 Q30.0783 599.067 31.017 600.351 Q31.9064 601.587 34.8214 601.587 L88.1312 601.587 Q91.0462 601.587 91.9849 600.351 Q92.9237 599.067 92.9237 593.583 L92.9237 591.162 L96.0363 591.162 Q95.7398 594.917 95.7398 605.638 Q95.7398 616.458 96.0363 620.213 L92.9237 620.213 L92.9237 617.743 Q92.9237 612.258 92.0343 611.023 Q91.0956 609.788 88.1312 609.788 L30.0783 609.788 L30.0783 609.887 L94.1094 634.738 Q96.0363 635.43 96.0363 636.567 Q96.0363 637.802 93.813 638.592 L30.8688 662.999 L30.8688 663.098 L85.4138 663.098 Q86.9454 663.098 87.8842 662.9 Q88.7735 662.703 90.1569 661.863 Q91.4909 660.973 92.232 658.651 Q92.9237 656.329 92.9237 652.673 L96.0363 652.673 Q95.7398 663.296 95.7398 664.531 Q95.7398 665.716 96.0363 676.339 Z" fill="#000000" fill-rule="nonzero" fill-opacity="1" /><path clip-path="url(#clip960)" d="M30.0783 585.628 L26.9163 585.628 Q26.9163 584.195 27.0151 581.626 Q27.1139 579.057 27.1633 577.031 Q27.2127 575.006 27.2127 573.277 Q27.2127 562.555 26.9163 558.899 L30.0783 558.899 Q30.0783 567.397 33.0921 567.397 Q33.7838 567.397 34.4261 567.199 L84.1787 550.945 L40.7996 536.864 L33.685 539.087 Q31.1653 539.878 30.6218 541.607 Q30.0783 543.336 30.0783 548.178 L26.9163 548.178 Q26.9163 546.745 27.0151 544.176 Q27.1139 541.607 27.1633 539.581 Q27.2127 537.555 27.2127 535.876 Q27.2127 525.154 26.9163 521.498 L30.0783 521.498 Q30.0783 529.996 33.0921 529.996 Q33.3886 529.996 34.6237 529.7 L84.1787 513.494 L37.4399 498.327 Q35.9083 497.832 35.4142 497.783 Q33.5862 497.783 31.9064 499.908 Q30.1771 502.032 30.0783 506.627 L26.9163 506.627 Q27.2127 498.722 27.2127 494.572 Q27.2127 489.927 26.9163 485.382 L30.0783 485.382 Q30.0783 493.386 36.847 495.461 L96.2339 514.828 Q97.0244 515.026 97.3703 515.174 Q97.7655 515.322 98.0126 515.718 Q98.2596 516.113 98.2596 516.805 Q98.2596 518.139 96.3327 518.731 L44.8509 535.53 L96.2339 552.229 Q97.0244 552.427 97.3703 552.624 Q97.7655 552.773 98.0126 553.168 Q98.2596 553.563 98.2596 554.255 Q98.2596 555.589 96.3327 556.182 L34.3273 576.439 Q31.4123 577.328 30.77 578.711 Q30.0783 580.045 30.0783 585.628 Z" fill="#000000" fill-rule="nonzero" fill-opacity="1" /><path clip-path="url(#clip960)" d="M119.01 481.429 L119.01 472.931 L22.4697 472.931 L22.4697 481.429 L20.1476 481.429 L20.1476 466.163 L121.333 466.163 L121.333 481.429 L119.01 481.429 Z" fill="#000000" fill-rule="nonzero" fill-opacity="1" /><path clip-path="url(#clip960)" d="M1542.25 93.0576 Q1529.28 79.656 1529.28 60.4491 Q1529.28 41.1805 1542.38 27.8407 Q1555.47 14.5009 1573.26 14.5009 Q1577.7 14.5009 1581.47 15.5508 Q1585.3 16.5389 1588.32 18.5769 Q1591.35 20.5532 1592.89 21.9119 Q1594.5 23.2088 1596.66 25.3704 L1603.02 16.0448 Q1604.01 14.5009 1605 14.5009 Q1606.05 14.5009 1606.23 15.1185 Q1606.42 15.6743 1606.42 17.527 L1606.42 47.5416 Q1606.42 49.5796 1606.17 50.0737 Q1605.93 50.5678 1604.38 50.5678 Q1603.15 50.5678 1602.9 50.1972 Q1602.65 49.8267 1602.34 48.4062 Q1600.43 34.7576 1592.77 26.6055 Q1585.18 18.4534 1574.8 18.4534 Q1571.77 18.4534 1568.38 19.1328 Q1565.04 19.8121 1560.1 22.4059 Q1555.22 24.9998 1551.45 29.2611 Q1547.75 33.4607 1545.03 41.6128 Q1542.31 49.7032 1542.31 60.4491 Q1542.31 71.0716 1545.03 79.2237 Q1547.75 87.3758 1551.52 91.6371 Q1555.35 95.8367 1560.29 98.4923 Q1565.29 101.148 1568.81 101.889 Q1572.39 102.568 1575.54 102.568 Q1577.7 102.568 1580.23 102.136 Q1582.77 101.642 1586.53 100.283 Q1590.36 98.8628 1592.77 95.5279 Q1595.18 92.1929 1595.18 87.2523 L1595.18 79.1619 Q1595.18 75.3947 1593.33 74.2212 Q1591.47 73.0478 1583.38 73.0478 L1579.37 73.0478 L1579.37 69.1571 Q1583.94 69.5276 1599.69 69.5276 Q1601.11 69.5276 1615.13 69.1571 L1615.13 73.0478 Q1609.08 73.0478 1607.72 73.9742 Q1606.42 74.8388 1606.42 78.6061 L1606.42 100.654 Q1606.42 103.556 1605.31 103.556 Q1604.32 103.556 1601.36 100.716 Q1598.45 97.8747 1597.16 95.7132 Q1594.13 101.024 1587.52 103.742 Q1580.98 106.459 1573.5 106.459 Q1555.28 106.459 1542.25 93.0576 Z" fill="#000000" fill-rule="nonzero" fill-opacity="1" /><path clip-path="url(#clip960)" d="M1624.82 75.827 Q1624.82 63.9076 1632.48 55.4467 Q1640.14 46.9858 1651.13 46.9858 Q1662.25 46.9858 1667.99 54.2115 Q1673.8 61.4373 1673.8 71.8127 Q1673.8 73.7272 1673.3 74.0977 Q1672.81 74.4683 1670.65 74.4683 L1635.32 74.4683 Q1635.32 87.3758 1639.15 93.4281 Q1644.46 101.889 1653.42 101.889 Q1654.65 101.889 1656.14 101.642 Q1657.62 101.395 1660.64 100.345 Q1663.67 99.2334 1666.33 96.3308 Q1668.98 93.4281 1670.53 88.858 Q1670.9 87.067 1672.13 87.1287 Q1673.8 87.1287 1673.8 88.611 Q1673.8 89.7226 1672.56 92.2547 Q1671.39 94.725 1669.1 97.6894 Q1666.82 100.654 1662.37 102.877 Q1657.99 105.1 1652.68 105.1 Q1641.56 105.1 1633.16 96.7013 Q1624.82 88.2404 1624.82 75.827 M1635.45 71.8127 L1665.46 71.8127 Q1665.46 69.1571 1664.97 66.1927 Q1664.53 63.2282 1663.18 59.1522 Q1661.88 55.0144 1658.79 52.4205 Q1655.7 49.8267 1651.13 49.8267 Q1649.1 49.8267 1646.87 50.6913 Q1644.71 51.5559 1642.05 53.6557 Q1639.4 55.7555 1637.55 60.5109 Q1635.69 65.2663 1635.45 71.8127 Z" fill="#000000" fill-rule="nonzero" fill-opacity="1" /><path clip-path="url(#clip960)" d="M1681.52 103.68 L1681.52 99.7892 Q1688.25 99.7892 1689.79 98.9864 Q1691.34 98.1217 1691.34 94.0457 L1691.34 60.1403 Q1691.34 55.4467 1689.67 54.2733 Q1688.06 53.0999 1681.52 53.0999 L1681.52 49.1473 L1699.3 47.7886 L1699.3 61.0667 Q1705.23 47.7886 1718.02 47.7886 Q1727.53 47.7886 1731.3 52.4823 Q1734.07 55.632 1734.63 59.1522 Q1735.25 62.6724 1735.25 71.8127 L1735.25 95.9602 Q1735.37 98.6158 1737.41 99.2334 Q1739.45 99.7892 1745.13 99.7892 L1745.13 103.68 Q1732.22 103.309 1730.92 103.309 Q1729.94 103.309 1716.66 103.68 L1716.66 99.7892 Q1723.39 99.7892 1724.93 98.9864 Q1726.54 98.1217 1726.54 94.0457 L1726.54 64.5869 Q1726.54 58.1641 1724.56 54.3968 Q1722.59 50.5678 1717.15 50.5678 Q1710.61 50.5678 1705.36 56.0643 Q1700.11 61.5608 1700.11 70.8245 L1700.11 94.0457 Q1700.11 98.1217 1701.65 98.9864 Q1703.26 99.7892 1709.93 99.7892 L1709.93 103.68 Q1697.02 103.309 1695.78 103.309 Q1694.8 103.309 1681.52 103.68 Z" fill="#000000" fill-rule="nonzero" fill-opacity="1" /><path clip-path="url(#clip960)" d="M1751.12 75.827 Q1751.12 63.9076 1758.78 55.4467 Q1766.44 46.9858 1777.43 46.9858 Q1788.55 46.9858 1794.29 54.2115 Q1800.09 61.4373 1800.09 71.8127 Q1800.09 73.7272 1799.6 74.0977 Q1799.11 74.4683 1796.94 74.4683 L1761.62 74.4683 Q1761.62 87.3758 1765.45 93.4281 Q1770.76 101.889 1779.71 101.889 Q1780.95 101.889 1782.43 101.642 Q1783.91 101.395 1786.94 100.345 Q1789.97 99.2334 1792.62 96.3308 Q1795.28 93.4281 1796.82 88.858 Q1797.19 87.067 1798.43 87.1287 Q1800.09 87.1287 1800.09 88.611 Q1800.09 89.7226 1798.86 92.2547 Q1797.69 94.725 1795.4 97.6894 Q1793.12 100.654 1788.67 102.877 Q1784.28 105.1 1778.97 105.1 Q1767.86 105.1 1759.46 96.7013 Q1751.12 88.2404 1751.12 75.827 M1761.74 71.8127 L1791.76 71.8127 Q1791.76 69.1571 1791.26 66.1927 Q1790.83 63.2282 1789.47 59.1522 Q1788.17 55.0144 1785.09 52.4205 Q1782 49.8267 1777.43 49.8267 Q1775.39 49.8267 1773.17 50.6913 Q1771.01 51.5559 1768.35 53.6557 Q1765.69 55.7555 1763.84 60.5109 Q1761.99 65.2663 1761.74 71.8127 Z" fill="#000000" fill-rule="nonzero" fill-opacity="1" /><path clip-path="url(#clip960)" d="M1807.26 103.68 L1807.26 99.7892 Q1813.99 99.7892 1815.53 98.9864 Q1817.14 98.1217 1817.14 94.0457 L1817.14 60.1403 Q1817.14 55.4467 1815.47 54.2733 Q1813.87 53.0999 1807.26 53.0999 L1807.26 49.1473 L1824.86 47.7886 L1824.86 61.6843 Q1826.65 56.2495 1830.42 52.05 Q1834.25 47.7886 1840.42 47.7886 Q1844.5 47.7886 1847.09 50.0737 Q1849.75 52.3588 1849.75 55.5084 Q1849.75 58.2876 1848.02 59.708 Q1846.35 61.0667 1844.31 61.0667 Q1842.03 61.0667 1840.42 59.6463 Q1838.88 58.1641 1838.88 55.632 Q1838.88 54.088 1839.56 52.9146 Q1840.3 51.6794 1840.85 51.2471 Q1841.41 50.8148 1841.78 50.6913 Q1841.53 50.5678 1840.42 50.5678 Q1833.44 50.5678 1829.43 57.5465 Q1825.48 64.4634 1825.48 74.3448 L1825.48 93.7987 Q1825.48 97.4424 1826.96 98.6158 Q1828.5 99.7892 1835.11 99.7892 L1837.77 99.7892 L1837.77 103.68 Q1832.7 103.309 1821.71 103.309 Q1820.17 103.309 1817.76 103.371 Q1815.35 103.433 1812.2 103.556 Q1809.05 103.68 1807.26 103.68 Z" fill="#000000" fill-rule="nonzero" fill-opacity="1" /><path clip-path="url(#clip960)" d="M1858.46 91.6371 Q1858.46 80.8912 1871.12 75.2094 Q1878.71 71.5656 1894.4 70.6393 L1894.4 66.0074 Q1894.4 58.1641 1890.26 54.0262 Q1886.19 49.8267 1881 49.8267 Q1871.73 49.8267 1867.29 55.632 Q1871.05 55.7555 1872.41 57.67 Q1873.77 59.5227 1873.77 61.4373 Q1873.77 63.9693 1872.17 65.6368 Q1870.62 67.2425 1867.97 67.2425 Q1865.43 67.2425 1863.77 65.6986 Q1862.1 64.0929 1862.1 61.3137 Q1862.1 55.1379 1867.66 51.0618 Q1873.28 46.9858 1881.24 46.9858 Q1891.62 46.9858 1898.54 53.9645 Q1900.7 56.126 1901.75 58.9052 Q1902.86 61.6843 1902.98 63.537 Q1903.11 65.328 1903.11 68.91 L1903.11 94.1692 Q1903.11 94.9103 1903.35 96.1455 Q1903.6 97.3806 1904.71 98.9864 Q1905.89 100.53 1907.8 100.53 Q1912.37 100.53 1912.31 92.44 L1912.31 85.3378 L1915.52 85.3378 L1915.52 92.44 Q1915.52 99.1716 1911.94 101.827 Q1908.42 104.421 1905.15 104.421 Q1900.95 104.421 1898.29 101.333 Q1895.63 98.2453 1895.26 94.0457 Q1893.35 98.8628 1888.96 102.013 Q1884.64 105.1 1878.71 105.1 Q1874.14 105.1 1869.82 103.927 Q1865.56 102.815 1861.98 99.6657 Q1858.46 96.4543 1858.46 91.6371 M1868.21 91.5136 Q1868.21 96.2072 1871.55 99.2334 Q1874.88 102.26 1879.58 102.26 Q1884.89 102.26 1889.64 98.1835 Q1894.4 94.0457 1894.4 85.9553 L1894.4 73.2949 Q1880.38 73.7889 1874.27 79.4089 Q1868.21 84.9672 1868.21 91.5136 Z" fill="#000000" fill-rule="nonzero" fill-opacity="1" /><path clip-path="url(#clip960)" d="M1918.79 53.0999 L1918.79 50.3207 Q1924.6 50.0737 1928.43 45.9977 Q1932.32 41.8598 1933.62 36.7957 Q1934.97 31.7315 1935.1 25.8644 L1938.25 25.8644 L1938.25 49.1473 L1956.34 49.1473 L1956.34 53.0999 L1938.25 53.0999 L1938.25 88.2404 Q1938.25 101.889 1946.77 101.889 Q1950.41 101.889 1952.82 98.1835 Q1955.23 94.4162 1955.23 87.7463 L1955.23 80.7676 L1958.38 80.7676 L1958.38 87.9934 Q1958.38 94.8485 1955.23 99.9745 Q1952.08 105.1 1945.84 105.1 Q1943.56 105.1 1941.27 104.483 Q1939.05 103.927 1936.09 102.445 Q1933.18 100.901 1931.33 97.1954 Q1929.54 93.4281 1929.54 87.9934 L1929.54 53.0999 L1918.79 53.0999 Z" fill="#000000" fill-rule="nonzero" fill-opacity="1" /><path clip-path="url(#clip960)" d="M1977.28 96.8866 Q1968.94 88.611 1968.94 76.6298 Q1968.94 64.5869 1977.09 55.8172 Q1985.31 46.9858 1997.04 46.9858 Q2008.53 46.9858 2016.74 55.7555 Q2025.02 64.4634 2025.02 76.6298 Q2025.02 88.5492 2016.68 96.8248 Q2008.41 105.1 1996.92 105.1 Q1985.68 105.1 1977.28 96.8866 M1979.44 75.5799 Q1979.44 87.8698 1982.65 93.4281 Q1987.59 101.889 1997.04 101.889 Q2001.74 101.889 2005.63 99.3569 Q2009.58 96.8248 2011.74 92.5635 Q2014.52 87.0052 2014.52 75.5799 Q2014.52 63.4135 2011.18 58.0405 Q2006.24 49.8267 1996.92 49.8267 Q1992.84 49.8267 1988.83 51.9882 Q1984.88 54.088 1982.47 58.2876 Q1979.44 63.8458 1979.44 75.5799 Z" fill="#000000" fill-rule="nonzero" fill-opacity="1" /><path clip-path="url(#clip960)" d="M2032.18 103.68 L2032.18 99.7892 Q2038.91 99.7892 2040.46 98.9864 Q2042.06 98.1217 2042.06 94.0457 L2042.06 60.1403 Q2042.06 55.4467 2040.4 54.2733 Q2038.79 53.0999 2032.18 53.0999 L2032.18 49.1473 L2049.78 47.7886 L2049.78 61.6843 Q2051.57 56.2495 2055.34 52.05 Q2059.17 47.7886 2065.35 47.7886 Q2069.42 47.7886 2072.02 50.0737 Q2074.67 52.3588 2074.67 55.5084 Q2074.67 58.2876 2072.94 59.708 Q2071.28 61.0667 2069.24 61.0667 Q2066.95 61.0667 2065.35 59.6463 Q2063.8 58.1641 2063.8 55.632 Q2063.8 54.088 2064.48 52.9146 Q2065.22 51.6794 2065.78 51.2471 Q2066.33 50.8148 2066.71 50.6913 Q2066.46 50.5678 2065.35 50.5678 Q2058.37 50.5678 2054.35 57.5465 Q2050.4 64.4634 2050.4 74.3448 L2050.4 93.7987 Q2050.4 97.4424 2051.88 98.6158 Q2053.43 99.7892 2060.04 99.7892 L2062.69 99.7892 L2062.69 103.68 Q2057.63 103.309 2046.63 103.309 Q2045.09 103.309 2042.68 103.371 Q2040.27 103.433 2037.12 103.556 Q2033.97 103.68 2032.18 103.68 Z" fill="#000000" fill-rule="nonzero" fill-opacity="1" /><path clip-path="url(#clip960)" d="M2124.57 103.68 L2124.57 99.7892 L2127.6 99.7892 Q2134.45 99.7892 2136 98.6776 Q2137.6 97.5042 2137.6 93.7987 L2137.6 27.1613 Q2137.6 23.5176 2136 22.4059 Q2134.39 21.2325 2127.6 21.2325 L2124.57 21.2325 L2124.57 17.28 L2170.83 17.28 Q2187.01 17.28 2198.25 30.1875 Q2209.55 43.095 2209.55 61.1902 Q2209.55 78.9149 2198.19 91.3283 Q2186.89 103.68 2170.83 103.68 L2124.57 103.68 M2148.47 94.725 Q2148.47 97.9982 2149.4 98.9246 Q2150.33 99.7892 2154.65 99.7892 L2167.43 99.7892 Q2175.77 99.7892 2181.39 96.3925 Q2187.01 92.934 2189.91 88.9815 Q2196.89 79.4707 2196.89 61.1902 Q2196.89 41.9834 2190.35 32.9666 Q2181.88 21.2325 2167.31 21.2325 L2154.65 21.2325 Q2150.33 21.2325 2149.4 22.0972 Q2148.47 22.9618 2148.47 26.2967 L2148.47 94.725 Z" fill="#000000" fill-rule="nonzero" fill-opacity="1" /><path clip-path="url(#clip960)" d="M2220.79 103.68 L2220.79 99.7892 Q2227.52 99.7892 2229.07 98.9864 Q2230.61 98.1217 2230.61 94.0457 L2230.61 60.0168 Q2230.61 55.3232 2229.01 54.2115 Q2227.46 53.0999 2221.29 53.0999 L2221.29 49.1473 L2238.95 47.7886 L2238.95 94.1692 Q2238.95 97.9365 2240.31 98.8628 Q2241.67 99.7892 2247.84 99.7892 L2247.84 103.68 Q2234.94 103.309 2234.69 103.309 Q2232.96 103.309 2220.79 103.68 M2226.1 25.7409 Q2226.1 23.2088 2228.02 21.1708 Q2229.99 19.071 2232.77 19.071 Q2235.55 19.071 2237.53 20.9855 Q2239.51 22.8383 2239.51 25.8027 Q2239.51 28.7053 2237.53 30.6198 Q2235.55 32.4726 2232.77 32.4726 Q2229.87 32.4726 2227.96 30.4345 Q2226.1 28.3965 2226.1 25.7409 Z" fill="#000000" fill-rule="nonzero" fill-opacity="1" /><path clip-path="url(#clip960)" d="M2255.81 102.013 L2255.81 85.3378 Q2255.81 83.9173 2255.87 83.4232 Q2255.93 82.9292 2256.3 82.5586 Q2256.67 82.1881 2257.42 82.1881 Q2258.28 82.1881 2258.59 82.5586 Q2258.96 82.9292 2259.21 84.3496 Q2261.12 93.0576 2265.2 97.6894 Q2269.33 102.26 2276.81 102.26 Q2283.91 102.26 2287.49 99.1099 Q2291.07 95.9602 2291.07 90.7725 Q2291.07 81.5087 2277.92 79.1619 Q2270.32 77.618 2267.17 76.6298 Q2264.02 75.5799 2261.24 73.2949 Q2255.81 68.8483 2255.81 62.5489 Q2255.81 56.2495 2260.56 51.6177 Q2265.38 46.9858 2276 46.9858 Q2283.11 46.9858 2287.92 50.5678 Q2289.34 49.4561 2290.09 48.5297 Q2291.75 46.9858 2292.62 46.9858 Q2293.61 46.9858 2293.79 47.6651 Q2293.98 48.2827 2293.98 50.0737 L2293.98 62.7959 Q2293.98 64.2164 2293.91 64.7105 Q2293.85 65.2045 2293.48 65.5751 Q2293.11 65.8839 2292.31 65.8839 Q2290.89 65.8839 2290.83 64.7105 Q2289.84 49.3944 2276 49.3944 Q2268.53 49.3944 2265.2 52.297 Q2261.86 55.1379 2261.86 59.0287 Q2261.86 61.1902 2262.85 62.8577 Q2263.9 64.4634 2265.2 65.4516 Q2266.56 66.3779 2269.03 67.3043 Q2271.5 68.1689 2272.98 68.4777 Q2274.52 68.7865 2277.42 69.4041 Q2287.55 71.3186 2291.81 75.4564 Q2297.13 80.7676 2297.13 87.4993 Q2297.13 94.9721 2292.06 100.036 Q2287 105.1 2276.81 105.1 Q2268.59 105.1 2262.85 99.6039 Q2262.11 100.345 2261.55 101.024 Q2261 101.642 2260.75 101.889 Q2260.56 102.136 2260.5 102.321 Q2260.44 102.445 2260.32 102.568 Q2257.79 105.1 2257.17 105.1 Q2256.18 105.1 2255.99 104.421 Q2255.81 103.804 2255.81 102.013 Z" fill="#000000" fill-rule="nonzero" fill-opacity="1" /><path clip-path="url(#clip960)" d="M2304.91 124.307 Q2311.64 124.307 2313.18 123.443 Q2314.79 122.64 2314.79 118.626 L2314.79 59.3992 Q2314.79 55.1997 2313.18 54.1498 Q2311.64 53.0999 2304.91 53.0999 L2304.91 49.1473 L2323.13 47.7886 L2323.13 56.126 Q2330.72 47.7886 2340.85 47.7886 Q2351.6 47.7886 2359.44 56.126 Q2367.28 64.4634 2367.28 76.3828 Q2367.28 88.4257 2358.95 96.7631 Q2350.61 105.1 2339.06 105.1 Q2332.76 105.1 2328.5 101.889 Q2324.3 98.6158 2323.5 96.2072 L2323.5 97.3806 L2323.5 118.626 Q2323.5 122.702 2325.1 123.504 Q2326.71 124.307 2333.38 124.307 L2333.38 128.198 Q2320.1 127.828 2319.11 127.828 Q2317.88 127.828 2304.91 128.198 L2304.91 124.307 M2323.5 89.2903 Q2323.5 91.2048 2323.74 91.8841 Q2324.05 92.5635 2325.29 94.6015 Q2330.29 102.26 2338.44 102.26 Q2338.5 102.26 2338.57 102.26 Q2345.79 102.26 2351.29 94.9103 Q2356.78 87.4993 2356.78 76.3828 Q2356.78 65.7603 2351.78 58.3493 Q2346.78 50.9383 2339.86 50.9383 Q2334.92 50.9383 2330.6 53.5939 Q2326.28 56.2495 2323.5 61.0667 L2323.5 89.2903 Z" fill="#000000" fill-rule="nonzero" fill-opacity="1" /><path clip-path="url(#clip960)" d="M2376.86 91.6371 Q2376.86 80.8912 2389.52 75.2094 Q2397.11 71.5656 2412.8 70.6393 L2412.8 66.0074 Q2412.8 58.1641 2408.66 54.0262 Q2404.59 49.8267 2399.4 49.8267 Q2390.13 49.8267 2385.69 55.632 Q2389.45 55.7555 2390.81 57.67 Q2392.17 59.5227 2392.17 61.4373 Q2392.17 63.9693 2390.57 65.6368 Q2389.02 67.2425 2386.37 67.2425 Q2383.83 67.2425 2382.17 65.6986 Q2380.5 64.0929 2380.5 61.3137 Q2380.5 55.1379 2386.06 51.0618 Q2391.68 46.9858 2399.64 46.9858 Q2410.02 46.9858 2416.94 53.9645 Q2419.1 56.126 2420.15 58.9052 Q2421.26 61.6843 2421.38 63.537 Q2421.51 65.328 2421.51 68.91 L2421.51 94.1692 Q2421.51 94.9103 2421.75 96.1455 Q2422 97.3806 2423.11 98.9864 Q2424.29 100.53 2426.2 100.53 Q2430.77 100.53 2430.71 92.44 L2430.71 85.3378 L2433.92 85.3378 L2433.92 92.44 Q2433.92 99.1716 2430.34 101.827 Q2426.82 104.421 2423.55 104.421 Q2419.35 104.421 2416.69 101.333 Q2414.03 98.2453 2413.66 94.0457 Q2411.75 98.8628 2407.36 102.013 Q2403.04 105.1 2397.11 105.1 Q2392.54 105.1 2388.22 103.927 Q2383.96 102.815 2380.38 99.6657 Q2376.86 96.4543 2376.86 91.6371 M2386.61 91.5136 Q2386.61 96.2072 2389.95 99.2334 Q2393.28 102.26 2397.98 102.26 Q2403.29 102.26 2408.04 98.1835 Q2412.8 94.0457 2412.8 85.9553 L2412.8 73.2949 Q2398.78 73.7889 2392.67 79.4089 Q2386.61 84.9672 2386.61 91.5136 Z" fill="#000000" fill-rule="nonzero" fill-opacity="1" /><path clip-path="url(#clip960)" d="M2437.19 53.0999 L2437.19 50.3207 Q2443 50.0737 2446.83 45.9977 Q2450.72 41.8598 2452.02 36.7957 Q2453.37 31.7315 2453.5 25.8644 L2456.65 25.8644 L2456.65 49.1473 L2474.74 49.1473 L2474.74 53.0999 L2456.65 53.0999 L2456.65 88.2404 Q2456.65 101.889 2465.17 101.889 Q2468.81 101.889 2471.22 98.1835 Q2473.63 94.4162 2473.63 87.7463 L2473.63 80.7676 L2476.78 80.7676 L2476.78 87.9934 Q2476.78 94.8485 2473.63 99.9745 Q2470.48 105.1 2464.24 105.1 Q2461.96 105.1 2459.67 104.483 Q2457.45 103.927 2454.49 102.445 Q2451.58 100.901 2449.73 97.1954 Q2447.94 93.4281 2447.94 87.9934 L2447.94 53.0999 L2437.19 53.0999 Z" fill="#000000" fill-rule="nonzero" fill-opacity="1" /><path clip-path="url(#clip960)" d="M2496.17 96.7631 Q2488.14 88.3639 2488.14 76.3828 Q2488.14 64.3399 2496.05 55.6937 Q2503.95 46.9858 2515.57 46.9858 Q2523.29 46.9858 2529.09 50.6913 Q2534.9 54.335 2534.9 60.5726 Q2534.9 63.3518 2533.23 64.9575 Q2531.62 66.5014 2529.09 66.5014 Q2526.43 66.5014 2524.83 64.8957 Q2523.29 63.2282 2523.29 60.6962 Q2523.29 59.5845 2523.66 58.4729 Q2524.03 57.3612 2525.38 56.1878 Q2526.81 55.0144 2529.21 54.8291 Q2524.71 50.1972 2515.94 50.1972 Q2515.81 50.1972 2515.69 50.1972 Q2509.27 50.1972 2503.95 56.2495 Q2498.64 62.3019 2498.64 76.1358 Q2498.64 83.3615 2500.37 88.6727 Q2502.16 93.9222 2505.07 96.6395 Q2507.97 99.3569 2510.81 100.654 Q2513.65 101.889 2516.43 101.889 Q2528.84 101.889 2533.04 88.611 Q2533.41 87.3758 2534.65 87.3758 Q2536.32 87.3758 2536.32 88.611 Q2536.32 89.2285 2535.82 90.8343 Q2535.33 92.44 2533.78 94.9721 Q2532.24 97.5042 2530.02 99.7275 Q2527.86 101.889 2523.96 103.495 Q2520.14 105.1 2515.32 105.1 Q2504.2 105.1 2496.17 96.7631 Z" fill="#000000" fill-rule="nonzero" fill-opacity="1" /><path clip-path="url(#clip960)" d="M2540.52 103.68 L2540.52 99.7892 Q2547.25 99.7892 2548.79 98.9864 Q2550.34 98.1217 2550.34 94.0457 L2550.34 28.273 Q2550.34 23.5794 2548.67 22.4059 Q2547.06 21.2325 2540.52 21.2325 L2540.52 17.28 L2558.67 15.9213 L2558.67 59.8933 L2558.8 59.8933 Q2560.83 55.3232 2565.4 51.5559 Q2569.97 47.7886 2577.01 47.7886 Q2586.53 47.7886 2590.29 52.4823 Q2593.07 55.632 2593.63 59.1522 Q2594.25 62.6724 2594.25 71.8127 L2594.25 95.9602 Q2594.37 98.6158 2596.41 99.2334 Q2598.45 99.7892 2604.13 99.7892 L2604.13 103.68 Q2591.22 103.309 2589.92 103.309 Q2588.93 103.309 2575.66 103.68 L2575.66 99.7892 Q2582.39 99.7892 2583.93 98.9864 Q2585.54 98.1217 2585.54 94.0457 L2585.54 64.5869 Q2585.54 58.1641 2583.56 54.3968 Q2581.59 50.5678 2576.15 50.5678 Q2569.6 50.5678 2564.35 56.0643 Q2559.11 61.5608 2559.11 70.8245 L2559.11 94.0457 Q2559.11 98.1217 2560.65 98.9864 Q2562.25 99.7892 2568.92 99.7892 L2568.92 103.68 Q2556.02 103.309 2554.78 103.309 Q2553.79 103.309 2540.52 103.68 Z" fill="#000000" fill-rule="nonzero" fill-opacity="1" /><path clip-path="url(#clip962)" d="M530.526 1652.6 L530.526 1652.6 L1042.59 1652.6 L1042.59 1652.6 L530.526 1652.6 L530.526 1652.6  Z" fill="#009af9" fill-rule="evenodd" fill-opacity="1"/>
<polyline clip-path="url(#clip962)" style="stroke:#000000; stroke-linecap:round; stroke-linejoin:round; stroke-width:4; stroke-opacity:1; fill:none" points="530.526,1652.6 530.526,1652.6 1042.59,1652.6 1042.59,1652.6 530.526,1652.6 "/>
<path clip-path="url(#clip962)" d="M1170.6 1535.46 L1170.6 1652.6 L1682.66 1652.6 L1682.66 1535.46 L1170.6 1535.46 L1170.6 1535.46  Z" fill="#009af9" fill-rule="evenodd" fill-opacity="1"/>
<polyline clip-path="url(#clip962)" style="stroke:#000000; stroke-linecap:round; stroke-linejoin:round; stroke-width:4; stroke-opacity:1; fill:none" points="1170.6,1535.46 1170.6,1652.6 1682.66,1652.6 1682.66,1535.46 1170.6,1535.46 "/>
<path clip-path="url(#clip962)" d="M1810.68 274.213 L1810.68 1652.6 L2322.74 1652.6 L2322.74 274.213 L1810.68 274.213 L1810.68 274.213  Z" fill="#009af9" fill-rule="evenodd" fill-opacity="1"/>
<polyline clip-path="url(#clip962)" style="stroke:#000000; stroke-linecap:round; stroke-linejoin:round; stroke-width:4; stroke-opacity:1; fill:none" points="1810.68,274.213 1810.68,1652.6 2322.74,1652.6 2322.74,274.213 1810.68,274.213 "/>
<path clip-path="url(#clip962)" d="M2450.75 1154.77 L2450.75 1652.6 L2962.81 1652.6 L2962.81 1154.77 L2450.75 1154.77 L2450.75 1154.77  Z" fill="#009af9" fill-rule="evenodd" fill-opacity="1"/>
<polyline clip-path="url(#clip962)" style="stroke:#000000; stroke-linecap:round; stroke-linejoin:round; stroke-width:4; stroke-opacity:1; fill:none" points="2450.75,1154.77 2450.75,1652.6 2962.81,1652.6 2962.81,1154.77 2450.75,1154.77 "/>
<path clip-path="url(#clip962)" d="M3090.82 702.333 L3090.82 1652.6 L3602.88 1652.6 L3602.88 702.333 L3090.82 702.333 L3090.82 702.333  Z" fill="#009af9" fill-rule="evenodd" fill-opacity="1"/>
<polyline clip-path="url(#clip962)" style="stroke:#000000; stroke-linecap:round; stroke-linejoin:round; stroke-width:4; stroke-opacity:1; fill:none" points="3090.82,702.333 3090.82,1652.6 3602.88,1652.6 3602.88,702.333 3090.82,702.333 "/>
<circle clip-path="url(#clip962)" style="fill:#009af9; stroke:none; fill-opacity:0" cx="1426.63" cy="1535.46" r="2"/>
<circle clip-path="url(#clip962)" style="fill:#009af9; stroke:none; fill-opacity:0" cx="2066.71" cy="274.213" r="2"/>
<circle clip-path="url(#clip962)" style="fill:#009af9; stroke:none; fill-opacity:0" cx="2706.78" cy="1154.77" r="2"/>
<circle clip-path="url(#clip962)" style="fill:#009af9; stroke:none; fill-opacity:0" cx="3346.85" cy="702.333" r="2"/>
</svg>
