<?xml version="1.0" encoding="utf-8"?>
<svg xmlns="http://www.w3.org/2000/svg" xmlns:xlink="http://www.w3.org/1999/xlink" width="720" height="480" viewBox="0 0 2880 1920">
<defs>
  <clipPath id="clip000">
    <rect x="0" y="0" width="2880" height="1920"/>
  </clipPath>
</defs>
<path clip-path="url(#clip000)" d="M0 1920 L2880 1920 L2880 0 L0 0  Z" fill="#ffffff" fill-rule="evenodd" fill-opacity="1"/>
<defs>
  <clipPath id="clip001">
    <rect x="576" y="0" width="2017" height="1920"/>
  </clipPath>
</defs>
<path clip-path="url(#clip000)" d="M321.323 1653.86 L2832.76 1653.86 L2832.76 149.392 L321.323 149.392  Z" fill="#ffffff" fill-rule="evenodd" fill-opacity="1"/>
<defs>
  <clipPath id="clip002">
    <rect x="321" y="149" width="2512" height="1505"/>
  </clipPath>
</defs>
<polyline clip-path="url(#clip002)" style="stroke:#000000; stroke-linecap:round; stroke-linejoin:round; stroke-width:2; stroke-opacity:0.1; fill:none" points="645.72,1653.86 645.72,149.392 "/>
<polyline clip-path="url(#clip002)" style="stroke:#000000; stroke-linecap:round; stroke-linejoin:round; stroke-width:2; stroke-opacity:0.1; fill:none" points="1111.38,1653.86 1111.38,149.392 "/>
<polyline clip-path="url(#clip002)" style="stroke:#000000; stroke-linecap:round; stroke-linejoin:round; stroke-width:2; stroke-opacity:0.1; fill:none" points="1577.04,1653.86 1577.04,149.392 "/>
<polyline clip-path="url(#clip002)" style="stroke:#000000; stroke-linecap:round; stroke-linejoin:round; stroke-width:2; stroke-opacity:0.1; fill:none" points="2042.7,1653.86 2042.7,149.392 "/>
<polyline clip-path="url(#clip002)" style="stroke:#000000; stroke-linecap:round; stroke-linejoin:round; stroke-width:2; stroke-opacity:0.1; fill:none" points="2508.36,1653.86 2508.36,149.392 "/>
<polyline clip-path="url(#clip000)" style="stroke:#000000; stroke-linecap:round; stroke-linejoin:round; stroke-width:4; stroke-opacity:1; fill:none" points="321.323,1653.86 2832.76,1653.86 "/>
<polyline clip-path="url(#clip000)" style="stroke:#000000; stroke-linecap:round; stroke-linejoin:round; stroke-width:4; stroke-opacity:1; fill:none" points="321.323,149.392 2832.76,149.392 "/>
<polyline clip-path="url(#clip000)" style="stroke:#000000; stroke-linecap:round; stroke-linejoin:round; stroke-width:4; stroke-opacity:1; fill:none" points="645.72,1653.86 645.72,1634.96 "/>
<polyline clip-path="url(#clip000)" style="stroke:#000000; stroke-linecap:round; stroke-linejoin:round; stroke-width:4; stroke-opacity:1; fill:none" points="1111.38,1653.86 1111.38,1634.96 "/>
<polyline clip-path="url(#clip000)" style="stroke:#000000; stroke-linecap:round; stroke-linejoin:round; stroke-width:4; stroke-opacity:1; fill:none" points="1577.04,1653.86 1577.04,1634.96 "/>
<polyline clip-path="url(#clip000)" style="stroke:#000000; stroke-linecap:round; stroke-linejoin:round; stroke-width:4; stroke-opacity:1; fill:none" points="2042.7,1653.86 2042.7,1634.96 "/>
<polyline clip-path="url(#clip000)" style="stroke:#000000; stroke-linecap:round; stroke-linejoin:round; stroke-width:4; stroke-opacity:1; fill:none" points="2508.36,1653.86 2508.36,1634.96 "/>
<path clip-path="url(#clip000)" d="M628.897 1729.17 L628.897 1726.84 L652.204 1691.23 Q652.797 1690.3 653.724 1690.34 Q654.576 1690.34 654.761 1690.67 Q654.947 1691 654.947 1692.3 L654.947 1726.84 L662.543 1726.84 L662.543 1729.17 L654.947 1729.17 L654.947 1735.77 Q654.947 1737.95 655.836 1738.66 Q656.762 1739.36 660.69 1739.36 L662.283 1739.36 L662.283 1741.7 Q659.171 1741.47 651.982 1741.47 Q644.831 1741.47 641.718 1741.7 L641.718 1739.36 L643.311 1739.36 Q647.239 1739.36 648.165 1738.69 Q649.092 1737.99 649.092 1735.77 L649.092 1729.17 L628.897 1729.17 M631.046 1726.84 L649.537 1726.84 L649.537 1698.53 L631.046 1726.84 Z" fill="#000000" fill-rule="nonzero" fill-opacity="1" /><path clip-path="url(#clip000)" d="M1098.85 1698.38 L1098.85 1696.01 Q1107.97 1696.01 1112.68 1691.15 Q1113.97 1691.15 1114.2 1691.45 Q1114.42 1691.75 1114.42 1693.12 L1114.42 1735.69 Q1114.42 1737.95 1115.53 1738.66 Q1116.64 1739.36 1121.5 1739.36 L1123.9 1739.36 L1123.9 1741.7 Q1121.24 1741.47 1111.6 1741.47 Q1101.97 1741.47 1099.34 1741.7 L1099.34 1739.36 L1101.75 1739.36 Q1106.53 1739.36 1107.67 1738.69 Q1108.82 1737.99 1108.82 1735.69 L1108.82 1696.38 Q1104.86 1698.38 1098.85 1698.38 Z" fill="#000000" fill-rule="nonzero" fill-opacity="1" /><path clip-path="url(#clip000)" d="M1561.88 1729.47 Q1561.88 1727.21 1563.11 1726.35 Q1564.33 1725.47 1565.63 1725.47 Q1567.37 1725.47 1568.37 1726.58 Q1569.41 1727.65 1569.41 1729.17 Q1569.41 1730.69 1568.37 1731.8 Q1567.37 1732.88 1565.63 1732.88 Q1564.77 1732.88 1564.33 1732.73 Q1565.33 1736.21 1568.37 1738.73 Q1571.44 1741.25 1575.48 1741.25 Q1580.56 1741.25 1583.6 1736.32 Q1585.41 1733.14 1585.41 1725.91 Q1585.41 1719.54 1584.04 1716.35 Q1581.93 1711.5 1577.6 1711.5 Q1571.44 1711.5 1567.81 1716.79 Q1567.37 1717.46 1566.85 1717.5 Q1566.11 1717.5 1565.92 1717.09 Q1565.77 1716.65 1565.77 1715.5 L1565.77 1693.04 Q1565.77 1691.23 1566.52 1691.23 Q1566.81 1691.23 1567.44 1691.45 Q1572.22 1693.56 1577.52 1693.6 Q1582.97 1693.6 1587.86 1691.38 Q1588.23 1691.15 1588.45 1691.15 Q1589.19 1691.15 1589.23 1692 Q1589.23 1692.3 1588.6 1693.19 Q1588.01 1694.04 1586.71 1695.19 Q1585.41 1696.3 1583.75 1697.38 Q1582.08 1698.45 1579.63 1699.19 Q1577.22 1699.9 1574.56 1699.9 Q1571.37 1699.9 1568.11 1698.9 L1568.11 1713.68 Q1572.04 1709.83 1577.74 1709.83 Q1583.82 1709.83 1588.01 1714.72 Q1592.19 1719.61 1592.19 1726.43 Q1592.19 1733.58 1587.23 1738.47 Q1582.3 1743.36 1575.63 1743.36 Q1569.55 1743.36 1565.7 1739.03 Q1561.88 1734.69 1561.88 1729.47 Z" fill="#000000" fill-rule="nonzero" fill-opacity="1" /><path clip-path="url(#clip000)" d="M2027.54 1741.7 Q2027.54 1740.32 2027.65 1739.92 Q2027.8 1739.51 2028.4 1738.88 L2042.96 1722.65 Q2050.93 1713.68 2050.93 1705.86 Q2050.93 1700.79 2048.26 1697.16 Q2045.63 1693.52 2040.77 1693.52 Q2037.44 1693.52 2034.62 1695.56 Q2031.8 1697.6 2030.51 1701.23 Q2030.73 1701.16 2031.51 1701.16 Q2033.4 1701.16 2034.44 1702.34 Q2035.51 1703.53 2035.51 1705.12 Q2035.51 1707.16 2034.18 1708.16 Q2032.88 1709.12 2031.58 1709.12 Q2031.06 1709.12 2030.36 1709.01 Q2029.69 1708.9 2028.62 1707.86 Q2027.54 1706.79 2027.54 1704.9 Q2027.54 1699.6 2031.55 1695.38 Q2035.58 1691.15 2041.74 1691.15 Q2048.7 1691.15 2053.26 1695.3 Q2057.85 1699.42 2057.85 1705.86 Q2057.85 1708.12 2057.15 1710.2 Q2056.48 1712.24 2055.56 1713.83 Q2054.67 1715.42 2052.22 1717.98 Q2049.78 1720.54 2047.81 1722.35 Q2045.85 1724.17 2041.44 1728.02 L2033.4 1735.84 L2047.07 1735.84 Q2053.74 1735.84 2054.26 1735.25 Q2055 1734.17 2055.93 1728.5 L2057.85 1728.5 L2055.71 1741.7 L2027.54 1741.7 Z" fill="#000000" fill-rule="nonzero" fill-opacity="1" /><path clip-path="url(#clip000)" d="M2492.61 1731.47 Q2492.61 1729.21 2493.91 1728.13 Q2495.2 1727.06 2496.87 1727.06 Q2498.61 1727.06 2499.84 1728.21 Q2501.1 1729.32 2501.1 1731.28 Q2501.1 1733.4 2499.61 1734.58 Q2498.17 1735.77 2496.09 1735.47 Q2497.91 1738.51 2501.24 1739.88 Q2504.62 1741.25 2507.73 1741.25 Q2510.99 1741.25 2513.62 1738.43 Q2516.29 1735.62 2516.29 1728.73 Q2516.29 1722.87 2513.99 1719.5 Q2511.73 1716.13 2507.25 1716.13 L2503.91 1716.13 Q2502.76 1716.13 2502.43 1716.02 Q2502.1 1715.91 2502.1 1715.28 Q2502.1 1714.53 2503.25 1714.39 Q2504.39 1714.39 2506.21 1714.16 Q2510.62 1714.02 2512.95 1710.2 Q2515.07 1706.64 2515.07 1701.57 Q2515.07 1696.93 2512.84 1695.01 Q2510.66 1693.04 2507.8 1693.04 Q2505.13 1693.04 2502.21 1694.15 Q2499.28 1695.27 2497.69 1697.75 Q2502.39 1697.75 2502.39 1701.57 Q2502.39 1703.23 2501.32 1704.34 Q2500.28 1705.42 2498.54 1705.42 Q2496.87 1705.42 2495.76 1704.38 Q2494.65 1703.31 2494.65 1701.49 Q2494.65 1697.16 2498.5 1694.15 Q2502.39 1691.15 2508.1 1691.15 Q2513.73 1691.15 2517.88 1694.12 Q2522.07 1697.08 2522.07 1701.64 Q2522.07 1706.12 2519.1 1709.79 Q2516.14 1713.46 2511.43 1714.98 Q2517.21 1716.13 2520.66 1720.06 Q2524.11 1723.95 2524.11 1728.73 Q2524.11 1734.66 2519.44 1739.03 Q2514.77 1743.36 2507.95 1743.36 Q2501.65 1743.36 2497.13 1739.95 Q2492.61 1736.55 2492.61 1731.47 Z" fill="#000000" fill-rule="nonzero" fill-opacity="1" /><path clip-path="url(#clip000)" d="M1496.8 1857.76 L1496.8 1854.65 L1499.22 1854.65 Q1504.71 1854.65 1505.94 1853.76 Q1507.23 1852.82 1507.23 1849.85 L1507.23 1796.54 Q1507.23 1793.63 1505.94 1792.74 Q1504.66 1791.8 1499.22 1791.8 L1496.8 1791.8 L1496.8 1788.64 L1533.81 1788.64 Q1543.44 1788.64 1549.87 1793.83 Q1556.29 1798.97 1556.29 1805.73 Q1556.29 1811.32 1551.55 1815.76 Q1546.85 1820.21 1539.49 1821.64 Q1547.89 1822.53 1553.42 1827.62 Q1559.01 1832.66 1559.01 1839.23 Q1559.01 1846.64 1552.63 1852.23 Q1546.26 1857.76 1536.48 1857.76 L1496.8 1857.76 M1515.63 1850.6 Q1515.63 1853.21 1516.37 1853.96 Q1517.11 1854.65 1520.57 1854.65 L1533.22 1854.65 Q1540.48 1854.65 1544.68 1849.9 Q1548.88 1845.11 1548.88 1839.13 Q1548.88 1833.16 1545.17 1828.07 Q1541.52 1822.93 1534.65 1822.93 L1515.63 1822.93 L1515.63 1850.6 M1515.63 1820.7 L1530.3 1820.7 Q1538.11 1820.7 1542.26 1816.01 Q1546.46 1811.32 1546.46 1805.73 Q1546.46 1800.79 1543.1 1796.3 Q1539.79 1791.8 1533.12 1791.8 L1520.57 1791.8 Q1517.11 1791.8 1516.37 1792.49 Q1515.63 1793.19 1515.63 1795.85 L1515.63 1820.7 Z" fill="#000000" fill-rule="nonzero" fill-opacity="1" /><path clip-path="url(#clip000)" d="M1568 1817.3 L1568 1814.13 L1582.87 1813.05 L1582.87 1846.64 Q1582.87 1849.06 1583.07 1850.5 Q1583.26 1851.88 1584.06 1853.51 Q1584.89 1855.14 1586.77 1855.88 Q1588.7 1856.62 1591.76 1856.62 Q1597.25 1856.62 1600.61 1852.13 Q1604.02 1847.63 1604.02 1840.96 L1604.02 1822.93 Q1604.02 1819.17 1602.68 1818.23 Q1601.35 1817.3 1596.11 1817.3 L1596.11 1814.13 L1610.98 1813.05 L1610.98 1848.97 Q1610.98 1852.72 1612.27 1853.71 Q1613.6 1854.65 1618.89 1854.65 L1618.89 1857.76 L1604.31 1858.9 L1604.31 1849.76 Q1600.06 1858.85 1591.27 1858.9 Q1586.82 1858.9 1583.76 1857.76 Q1580.74 1856.62 1579.21 1855.24 Q1577.68 1853.81 1576.84 1851.09 Q1576.05 1848.37 1575.95 1846.69 Q1575.85 1845.01 1575.85 1841.75 L1575.85 1826.58 Q1575.85 1819.72 1574.87 1818.53 Q1573.88 1817.3 1568 1817.3 Z" fill="#000000" fill-rule="nonzero" fill-opacity="1" /><path clip-path="url(#clip000)" d="M1624.22 1856.43 L1624.22 1843.09 Q1624.22 1841.95 1624.27 1841.55 Q1624.32 1841.16 1624.62 1840.86 Q1624.91 1840.57 1625.51 1840.57 Q1626.2 1840.57 1626.45 1840.86 Q1626.74 1841.16 1626.94 1842.3 Q1628.47 1849.26 1631.73 1852.97 Q1635.04 1856.62 1641.02 1856.62 Q1646.7 1856.62 1649.57 1854.1 Q1652.43 1851.58 1652.43 1847.43 Q1652.43 1840.02 1641.91 1838.15 Q1635.83 1836.91 1633.31 1836.12 Q1630.79 1835.28 1628.57 1833.45 Q1624.22 1829.89 1624.22 1824.85 Q1624.22 1819.82 1628.03 1816.11 Q1631.88 1812.4 1640.38 1812.4 Q1646.06 1812.4 1649.91 1815.27 Q1651.05 1814.38 1651.64 1813.64 Q1652.98 1812.4 1653.67 1812.4 Q1654.46 1812.4 1654.61 1812.95 Q1654.76 1813.44 1654.76 1814.87 L1654.76 1825.05 Q1654.76 1826.19 1654.71 1826.58 Q1654.66 1826.98 1654.36 1827.28 Q1654.06 1827.52 1653.42 1827.52 Q1652.29 1827.52 1652.24 1826.58 Q1651.45 1814.33 1640.38 1814.33 Q1634.4 1814.33 1631.73 1816.65 Q1629.06 1818.93 1629.06 1822.04 Q1629.06 1823.77 1629.86 1825.1 Q1630.69 1826.39 1631.73 1827.18 Q1632.82 1827.92 1634.8 1828.66 Q1636.77 1829.35 1637.96 1829.6 Q1639.19 1829.84 1641.52 1830.34 Q1649.62 1831.87 1653.03 1835.18 Q1657.28 1839.43 1657.28 1844.82 Q1657.28 1850.79 1653.22 1854.84 Q1649.17 1858.9 1641.02 1858.9 Q1634.45 1858.9 1629.86 1854.5 Q1629.26 1855.09 1628.82 1855.64 Q1628.37 1856.13 1628.18 1856.33 Q1628.03 1856.52 1627.98 1856.67 Q1627.93 1856.77 1627.83 1856.87 Q1625.8 1858.9 1625.31 1858.9 Q1624.52 1858.9 1624.37 1858.35 Q1624.22 1857.86 1624.22 1856.43 Z" fill="#000000" fill-rule="nonzero" fill-opacity="1" /><polyline clip-path="url(#clip002)" style="stroke:#000000; stroke-linecap:round; stroke-linejoin:round; stroke-width:2; stroke-opacity:0.1; fill:none" points="321.323,1653.86 2832.76,1653.86 "/>
<polyline clip-path="url(#clip002)" style="stroke:#000000; stroke-linecap:round; stroke-linejoin:round; stroke-width:2; stroke-opacity:0.1; fill:none" points="321.323,1277.74 2832.76,1277.74 "/>
<polyline clip-path="url(#clip002)" style="stroke:#000000; stroke-linecap:round; stroke-linejoin:round; stroke-width:2; stroke-opacity:0.1; fill:none" points="321.323,901.624 2832.76,901.624 "/>
<polyline clip-path="url(#clip002)" style="stroke:#000000; stroke-linecap:round; stroke-linejoin:round; stroke-width:2; stroke-opacity:0.1; fill:none" points="321.323,525.508 2832.76,525.508 "/>
<polyline clip-path="url(#clip000)" style="stroke:#000000; stroke-linecap:round; stroke-linejoin:round; stroke-width:4; stroke-opacity:1; fill:none" points="321.323,1653.86 321.323,149.392 "/>
<polyline clip-path="url(#clip000)" style="stroke:#000000; stroke-linecap:round; stroke-linejoin:round; stroke-width:4; stroke-opacity:1; fill:none" points="2832.76,1653.86 2832.76,149.392 "/>
<polyline clip-path="url(#clip000)" style="stroke:#000000; stroke-linecap:round; stroke-linejoin:round; stroke-width:4; stroke-opacity:1; fill:none" points="321.323,1653.86 340.22,1653.86 "/>
<polyline clip-path="url(#clip000)" style="stroke:#000000; stroke-linecap:round; stroke-linejoin:round; stroke-width:4; stroke-opacity:1; fill:none" points="321.323,1277.74 340.22,1277.74 "/>
<polyline clip-path="url(#clip000)" style="stroke:#000000; stroke-linecap:round; stroke-linejoin:round; stroke-width:4; stroke-opacity:1; fill:none" points="321.323,901.624 340.22,901.624 "/>
<polyline clip-path="url(#clip000)" style="stroke:#000000; stroke-linecap:round; stroke-linejoin:round; stroke-width:4; stroke-opacity:1; fill:none" points="321.323,525.508 340.22,525.508 "/>
<path clip-path="url(#clip000)" d="M149.208 1655.5 Q149.208 1644.35 152.024 1638.27 Q155.952 1629.23 165.216 1629.23 Q167.18 1629.23 169.218 1629.79 Q171.293 1630.31 173.887 1632.35 Q176.518 1634.38 178.111 1637.72 Q181.15 1644.17 181.15 1655.5 Q181.15 1666.58 178.333 1672.62 Q174.22 1681.44 165.142 1681.44 Q161.733 1681.44 158.25 1679.7 Q154.803 1677.96 152.617 1673.77 Q149.208 1667.51 149.208 1655.5 M155.508 1654.58 Q155.508 1666.03 156.323 1670.59 Q157.249 1675.51 159.769 1677.66 Q162.326 1679.78 165.142 1679.78 Q168.18 1679.78 170.7 1677.52 Q173.257 1675.22 174.035 1670.29 Q174.887 1665.44 174.85 1654.58 Q174.85 1644.02 174.109 1639.79 Q173.109 1634.87 170.441 1632.9 Q167.81 1630.9 165.142 1630.9 Q164.141 1630.9 163.067 1631.2 Q162.029 1631.49 160.51 1632.35 Q158.991 1633.2 157.805 1635.31 Q156.656 1637.42 156.1 1640.61 Q155.508 1644.72 155.508 1654.58 Z" fill="#000000" fill-rule="nonzero" fill-opacity="1" /><path clip-path="url(#clip000)" d="M191.784 1678.55 Q190.636 1677.33 190.636 1675.74 Q190.636 1674.14 191.784 1672.99 Q192.933 1671.81 194.675 1671.81 Q196.342 1671.81 197.454 1672.92 Q198.603 1674 198.603 1675.77 Q198.603 1677.52 197.38 1678.66 Q196.194 1679.78 194.675 1679.78 Q192.933 1679.78 191.784 1678.55 Z" fill="#000000" fill-rule="nonzero" fill-opacity="1" /><path clip-path="url(#clip000)" d="M208.459 1646.32 Q208.459 1642.28 209.645 1639.53 Q210.831 1636.75 213.313 1634.01 Q217.871 1629.23 224.467 1629.23 Q227.283 1629.23 229.766 1630.42 Q232.286 1631.6 234.657 1634.31 Q237.066 1636.98 238.511 1642.28 Q239.956 1647.54 239.956 1654.8 Q239.956 1666.55 234.25 1674 Q228.58 1681.44 220.91 1681.44 Q216.055 1681.44 213.202 1679.26 Q210.349 1677.03 210.349 1673.25 Q210.349 1671.29 211.461 1670.47 Q212.572 1669.62 213.832 1669.62 Q215.203 1669.62 216.278 1670.55 Q217.352 1671.44 217.352 1673.11 Q217.352 1674.48 216.463 1675.55 Q215.611 1676.59 213.388 1676.59 Q215.574 1679.33 220.836 1679.33 Q222.725 1679.33 224.615 1678.48 Q226.505 1677.59 228.543 1675.48 Q230.618 1673.33 231.878 1668.84 Q233.138 1664.36 233.138 1658.06 L233.138 1655.65 Q230.099 1663.25 223.652 1663.25 Q217.278 1663.25 212.869 1658.36 Q208.459 1653.47 208.459 1646.32 M215.277 1646.39 Q215.277 1653.91 216.648 1656.69 Q218.983 1661.47 223.726 1661.47 Q228.358 1661.47 230.655 1657.36 Q232.99 1653.21 232.99 1647.83 Q232.99 1640.39 231.767 1637.13 Q229.506 1631.12 224.467 1631.12 Q219.465 1631.12 216.871 1635.9 Q215.277 1638.72 215.277 1646.39 Z" fill="#000000" fill-rule="nonzero" fill-opacity="1" /><path clip-path="url(#clip000)" d="M246.181 1655.5 Q246.181 1644.35 248.997 1638.27 Q252.925 1629.23 262.189 1629.23 Q264.153 1629.23 266.191 1629.79 Q268.266 1630.31 270.86 1632.35 Q273.491 1634.38 275.084 1637.72 Q278.123 1644.17 278.123 1655.5 Q278.123 1666.58 275.306 1672.62 Q271.193 1681.44 262.115 1681.44 Q258.706 1681.44 255.223 1679.7 Q251.777 1677.96 249.59 1673.77 Q246.181 1667.51 246.181 1655.5 M252.481 1654.58 Q252.481 1666.03 253.296 1670.59 Q254.222 1675.51 256.742 1677.66 Q259.299 1679.78 262.115 1679.78 Q265.153 1679.78 267.673 1677.52 Q270.23 1675.22 271.008 1670.29 Q271.86 1665.44 271.823 1654.58 Q271.823 1644.02 271.082 1639.79 Q270.082 1634.87 267.414 1632.9 Q264.783 1630.9 262.115 1630.9 Q261.114 1630.9 260.04 1631.2 Q259.002 1631.49 257.483 1632.35 Q255.964 1633.2 254.778 1635.31 Q253.629 1637.42 253.073 1640.61 Q252.481 1644.72 252.481 1654.58 Z" fill="#000000" fill-rule="nonzero" fill-opacity="1" /><path clip-path="url(#clip000)" d="M150.023 1279.39 Q150.023 1268.24 152.84 1262.16 Q156.767 1253.12 166.031 1253.12 Q167.995 1253.12 170.033 1253.67 Q172.108 1254.19 174.702 1256.23 Q177.333 1258.27 178.926 1261.6 Q181.965 1268.05 181.965 1279.39 Q181.965 1290.47 179.149 1296.51 Q175.036 1305.33 165.957 1305.33 Q162.548 1305.33 159.065 1303.59 Q155.619 1301.84 153.432 1297.66 Q150.023 1291.39 150.023 1279.39 M156.323 1278.46 Q156.323 1289.91 157.138 1294.47 Q158.064 1299.4 160.584 1301.55 Q163.141 1303.66 165.957 1303.66 Q168.996 1303.66 171.515 1301.4 Q174.072 1299.1 174.85 1294.17 Q175.703 1289.32 175.665 1278.46 Q175.665 1267.9 174.924 1263.68 Q173.924 1258.75 171.256 1256.79 Q168.625 1254.78 165.957 1254.78 Q164.957 1254.78 163.882 1255.08 Q162.844 1255.38 161.325 1256.23 Q159.806 1257.08 158.62 1259.19 Q157.471 1261.31 156.916 1264.49 Q156.323 1268.61 156.323 1278.46 Z" fill="#000000" fill-rule="nonzero" fill-opacity="1" /><path clip-path="url(#clip000)" d="M192.6 1302.44 Q191.451 1301.21 191.451 1299.62 Q191.451 1298.03 192.6 1296.88 Q193.748 1295.69 195.49 1295.69 Q197.157 1295.69 198.269 1296.8 Q199.418 1297.88 199.418 1299.66 Q199.418 1301.4 198.195 1302.55 Q197.009 1303.66 195.49 1303.66 Q193.748 1303.66 192.6 1302.44 Z" fill="#000000" fill-rule="nonzero" fill-opacity="1" /><path clip-path="url(#clip000)" d="M209.274 1270.2 Q209.274 1266.16 210.46 1263.42 Q211.646 1260.64 214.129 1257.9 Q218.686 1253.12 225.282 1253.12 Q228.098 1253.12 230.581 1254.3 Q233.101 1255.49 235.472 1258.19 Q237.881 1260.86 239.326 1266.16 Q240.771 1271.42 240.771 1278.68 Q240.771 1290.43 235.065 1297.88 Q229.395 1305.33 221.725 1305.33 Q216.871 1305.33 214.017 1303.14 Q211.164 1300.92 211.164 1297.14 Q211.164 1295.17 212.276 1294.36 Q213.388 1293.51 214.647 1293.51 Q216.018 1293.51 217.093 1294.43 Q218.168 1295.32 218.168 1296.99 Q218.168 1298.36 217.278 1299.44 Q216.426 1300.47 214.203 1300.47 Q216.389 1303.22 221.651 1303.22 Q223.541 1303.22 225.43 1302.36 Q227.32 1301.47 229.358 1299.36 Q231.433 1297.21 232.693 1292.73 Q233.953 1288.24 233.953 1281.95 L233.953 1279.54 Q230.915 1287.13 224.467 1287.13 Q218.094 1287.13 213.684 1282.24 Q209.274 1277.35 209.274 1270.2 M216.093 1270.27 Q216.093 1277.8 217.464 1280.57 Q219.798 1285.35 224.541 1285.35 Q229.173 1285.35 231.47 1281.24 Q233.805 1277.09 233.805 1271.72 Q233.805 1264.27 232.582 1261.01 Q230.322 1255.01 225.282 1255.01 Q220.28 1255.01 217.686 1259.79 Q216.093 1262.6 216.093 1270.27 Z" fill="#000000" fill-rule="nonzero" fill-opacity="1" /><path clip-path="url(#clip000)" d="M247.812 1291.43 Q247.812 1289.17 249.034 1288.32 Q250.257 1287.43 251.554 1287.43 Q253.296 1287.43 254.296 1288.54 Q255.334 1289.62 255.334 1291.14 Q255.334 1292.65 254.296 1293.77 Q253.296 1294.84 251.554 1294.84 Q250.702 1294.84 250.257 1294.69 Q251.258 1298.18 254.296 1300.7 Q257.372 1303.22 261.411 1303.22 Q266.487 1303.22 269.526 1298.29 Q271.342 1295.1 271.342 1287.87 Q271.342 1281.5 269.971 1278.31 Q267.858 1273.46 263.523 1273.46 Q257.372 1273.46 253.74 1278.76 Q253.296 1279.43 252.777 1279.46 Q252.036 1279.46 251.851 1279.06 Q251.702 1278.61 251.702 1277.46 L251.702 1255.01 Q251.702 1253.19 252.444 1253.19 Q252.74 1253.19 253.37 1253.41 Q258.15 1255.53 263.449 1255.56 Q268.896 1255.56 273.787 1253.34 Q274.158 1253.12 274.38 1253.12 Q275.121 1253.12 275.158 1253.97 Q275.158 1254.27 274.528 1255.15 Q273.935 1256.01 272.639 1257.16 Q271.342 1258.27 269.674 1259.34 Q268.007 1260.42 265.561 1261.16 Q263.152 1261.86 260.484 1261.86 Q257.298 1261.86 254.037 1260.86 L254.037 1275.65 Q257.965 1271.79 263.671 1271.79 Q269.748 1271.79 273.935 1276.68 Q278.123 1281.58 278.123 1288.39 Q278.123 1295.54 273.157 1300.44 Q268.229 1305.33 261.559 1305.33 Q255.482 1305.33 251.628 1300.99 Q247.812 1296.66 247.812 1291.43 Z" fill="#000000" fill-rule="nonzero" fill-opacity="1" /><path clip-path="url(#clip000)" d="M152.988 884.227 L152.988 881.855 Q162.103 881.855 166.809 877.001 Q168.106 877.001 168.329 877.297 Q168.551 877.594 168.551 878.965 L168.551 921.541 Q168.551 923.801 169.663 924.505 Q170.774 925.209 175.628 925.209 L178.037 925.209 L178.037 927.544 Q175.369 927.322 165.735 927.322 Q156.1 927.322 153.47 927.544 L153.47 925.209 L155.878 925.209 Q160.658 925.209 161.807 924.542 Q162.956 923.838 162.956 921.541 L162.956 882.226 Q158.991 884.227 152.988 884.227 Z" fill="#000000" fill-rule="nonzero" fill-opacity="1" /><path clip-path="url(#clip000)" d="M191.784 926.321 Q190.636 925.098 190.636 923.505 Q190.636 921.912 191.784 920.763 Q192.933 919.577 194.675 919.577 Q196.342 919.577 197.454 920.689 Q198.603 921.763 198.603 923.542 Q198.603 925.284 197.38 926.432 Q196.194 927.544 194.675 927.544 Q192.933 927.544 191.784 926.321 Z" fill="#000000" fill-rule="nonzero" fill-opacity="1" /><path clip-path="url(#clip000)" d="M208.237 903.273 Q208.237 892.119 211.053 886.042 Q214.981 877.001 224.245 877.001 Q226.209 877.001 228.247 877.557 Q230.322 878.075 232.916 880.113 Q235.546 882.152 237.14 885.486 Q240.178 891.934 240.178 903.273 Q240.178 914.352 237.362 920.392 Q233.249 929.211 224.171 929.211 Q220.761 929.211 217.278 927.47 Q213.832 925.728 211.646 921.541 Q208.237 915.279 208.237 903.273 M214.536 902.347 Q214.536 913.797 215.351 918.354 Q216.278 923.283 218.798 925.432 Q221.354 927.544 224.171 927.544 Q227.209 927.544 229.729 925.284 Q232.286 922.986 233.064 918.058 Q233.916 913.204 233.879 902.347 Q233.879 891.786 233.138 887.562 Q232.137 882.633 229.469 880.669 Q226.838 878.668 224.171 878.668 Q223.17 878.668 222.095 878.965 Q221.058 879.261 219.539 880.113 Q218.019 880.966 216.834 883.078 Q215.685 885.19 215.129 888.377 Q214.536 892.49 214.536 902.347 Z" fill="#000000" fill-rule="nonzero" fill-opacity="1" /><path clip-path="url(#clip000)" d="M246.181 903.273 Q246.181 892.119 248.997 886.042 Q252.925 877.001 262.189 877.001 Q264.153 877.001 266.191 877.557 Q268.266 878.075 270.86 880.113 Q273.491 882.152 275.084 885.486 Q278.123 891.934 278.123 903.273 Q278.123 914.352 275.306 920.392 Q271.193 929.211 262.115 929.211 Q258.706 929.211 255.223 927.47 Q251.777 925.728 249.59 921.541 Q246.181 915.279 246.181 903.273 M252.481 902.347 Q252.481 913.797 253.296 918.354 Q254.222 923.283 256.742 925.432 Q259.299 927.544 262.115 927.544 Q265.153 927.544 267.673 925.284 Q270.23 922.986 271.008 918.058 Q271.86 913.204 271.823 902.347 Q271.823 891.786 271.082 887.562 Q270.082 882.633 267.414 880.669 Q264.783 878.668 262.115 878.668 Q261.114 878.668 260.04 878.965 Q259.002 879.261 257.483 880.113 Q255.964 880.966 254.778 883.078 Q253.629 885.19 253.073 888.377 Q252.481 892.49 252.481 902.347 Z" fill="#000000" fill-rule="nonzero" fill-opacity="1" /><path clip-path="url(#clip000)" d="M153.803 508.111 L153.803 505.739 Q162.919 505.739 167.625 500.885 Q168.921 500.885 169.144 501.181 Q169.366 501.478 169.366 502.849 L169.366 545.425 Q169.366 547.685 170.478 548.39 Q171.589 549.094 176.444 549.094 L178.852 549.094 L178.852 551.428 Q176.184 551.206 166.55 551.206 Q156.916 551.206 154.285 551.428 L154.285 549.094 L156.693 549.094 Q161.473 549.094 162.622 548.427 Q163.771 547.723 163.771 545.425 L163.771 506.11 Q159.806 508.111 153.803 508.111 Z" fill="#000000" fill-rule="nonzero" fill-opacity="1" /><path clip-path="url(#clip000)" d="M192.6 550.205 Q191.451 548.982 191.451 547.389 Q191.451 545.796 192.6 544.647 Q193.748 543.461 195.49 543.461 Q197.157 543.461 198.269 544.573 Q199.418 545.647 199.418 547.426 Q199.418 549.168 198.195 550.316 Q197.009 551.428 195.49 551.428 Q193.748 551.428 192.6 550.205 Z" fill="#000000" fill-rule="nonzero" fill-opacity="1" /><path clip-path="url(#clip000)" d="M209.052 527.157 Q209.052 516.003 211.868 509.926 Q215.796 500.885 225.06 500.885 Q227.024 500.885 229.062 501.441 Q231.137 501.96 233.731 503.998 Q236.362 506.036 237.955 509.371 Q240.994 515.818 240.994 527.157 Q240.994 538.236 238.177 544.276 Q234.064 553.096 224.986 553.096 Q221.577 553.096 218.094 551.354 Q214.647 549.612 212.461 545.425 Q209.052 539.163 209.052 527.157 M215.351 526.231 Q215.351 537.681 216.167 542.238 Q217.093 547.167 219.613 549.316 Q222.17 551.428 224.986 551.428 Q228.024 551.428 230.544 549.168 Q233.101 546.87 233.879 541.942 Q234.731 537.088 234.694 526.231 Q234.694 515.67 233.953 511.446 Q232.953 506.517 230.285 504.553 Q227.654 502.552 224.986 502.552 Q223.985 502.552 222.911 502.849 Q221.873 503.145 220.354 503.998 Q218.835 504.85 217.649 506.962 Q216.5 509.074 215.944 512.261 Q215.351 516.374 215.351 526.231 Z" fill="#000000" fill-rule="nonzero" fill-opacity="1" /><path clip-path="url(#clip000)" d="M247.812 539.2 Q247.812 536.94 249.034 536.087 Q250.257 535.198 251.554 535.198 Q253.296 535.198 254.296 536.31 Q255.334 537.384 255.334 538.903 Q255.334 540.423 254.296 541.534 Q253.296 542.609 251.554 542.609 Q250.702 542.609 250.257 542.461 Q251.258 545.944 254.296 548.464 Q257.372 550.983 261.411 550.983 Q266.487 550.983 269.526 546.055 Q271.342 542.868 271.342 535.643 Q271.342 529.269 269.971 526.082 Q267.858 521.228 263.523 521.228 Q257.372 521.228 253.74 526.527 Q253.296 527.194 252.777 527.231 Q252.036 527.231 251.851 526.823 Q251.702 526.379 251.702 525.23 L251.702 502.775 Q251.702 500.959 252.444 500.959 Q252.74 500.959 253.37 501.181 Q258.15 503.294 263.449 503.331 Q268.896 503.331 273.787 501.107 Q274.158 500.885 274.38 500.885 Q275.121 500.885 275.158 501.737 Q275.158 502.034 274.528 502.923 Q273.935 503.775 272.639 504.924 Q271.342 506.036 269.674 507.11 Q268.007 508.185 265.561 508.926 Q263.152 509.63 260.484 509.63 Q257.298 509.63 254.037 508.629 L254.037 523.414 Q257.965 519.561 263.671 519.561 Q269.748 519.561 273.935 524.452 Q278.123 529.343 278.123 536.161 Q278.123 543.313 273.157 548.204 Q268.229 553.096 261.559 553.096 Q255.482 553.096 251.628 548.76 Q247.812 544.425 247.812 539.2 Z" fill="#000000" fill-rule="nonzero" fill-opacity="1" /><path clip-path="url(#clip000)" d="M19.3142 1162.07 L16.1522 1162.07 Q16.4486 1151.15 16.4486 1149.23 Q16.4486 1138.41 16.1522 1134.75 L19.3142 1134.75 Q19.3142 1143.05 22.2292 1143.05 Q22.6245 1143.05 24.0573 1142.46 L75.1438 1123.14 L26.3794 1104.61 Q24.8478 1104.12 24.3537 1104.12 Q22.328 1104.12 20.8952 1105.99 Q19.413 1107.82 19.3142 1111.48 L16.1522 1111.48 Q16.4486 1103.57 16.4486 1099.97 Q16.4486 1094.83 16.1522 1090.14 L19.3142 1090.14 Q19.413 1098.63 26.0829 1101.15 L85.5686 1123.73 Q86.8038 1124.13 87.1496 1124.52 Q87.4955 1124.92 87.4955 1126.15 Q87.4955 1127.14 87.1002 1127.68 Q86.705 1128.18 85.2722 1128.67 L23.1679 1152.14 Q20.4506 1153.13 19.9071 1154.91 Q19.3142 1156.69 19.3142 1162.07 Z" fill="#000000" fill-rule="nonzero" fill-opacity="1" /><path clip-path="url(#clip000)" d="M79.8374 1087.02 Q73.2169 1093.69 63.632 1093.69 Q53.9977 1093.69 46.982 1087.17 Q39.9168 1080.6 39.9168 1071.21 Q39.9168 1062.02 46.9326 1055.45 Q53.8989 1048.83 63.632 1048.83 Q73.1675 1048.83 79.788 1055.5 Q86.4085 1062.12 86.4085 1071.31 Q86.4085 1080.3 79.8374 1087.02 M62.7921 1085.29 Q72.6241 1085.29 77.0707 1082.72 Q83.8394 1078.77 83.8394 1071.21 Q83.8394 1067.46 81.8137 1064.34 Q79.788 1061.18 76.379 1059.45 Q71.9324 1057.23 62.7921 1057.23 Q53.059 1057.23 48.7606 1059.9 Q42.1895 1063.85 42.1895 1071.31 Q42.1895 1074.57 43.9188 1077.78 Q45.5986 1080.95 48.9583 1082.87 Q53.4049 1085.29 62.7921 1085.29 Z" fill="#000000" fill-rule="nonzero" fill-opacity="1" /><path clip-path="url(#clip000)" d="M85.2722 1042.56 L82.1596 1042.56 Q82.1596 1037.17 81.5173 1035.94 Q80.8256 1034.7 77.5647 1034.7 L24.9466 1034.7 Q21.1917 1034.7 20.2529 1036.03 Q19.3142 1037.32 19.3142 1042.56 L16.1522 1042.56 L15.0652 1028.03 L77.5647 1028.03 Q80.8256 1028.03 81.5173 1026.75 Q82.1596 1025.46 82.1596 1020.13 L85.2722 1020.13 Q85.2722 1021.36 85.1734 1023.93 Q85.0746 1026.5 85.0252 1028.38 Q84.9757 1030.25 84.9757 1031.34 Q84.9757 1032.53 85.2722 1042.56 Z" fill="#000000" fill-rule="nonzero" fill-opacity="1" /><path clip-path="url(#clip000)" d="M44.8081 1015.98 L42.5848 1015.98 Q42.3872 1011.33 39.1263 1008.27 Q35.8161 1005.16 31.7647 1004.12 Q27.7134 1003.03 23.0197 1002.93 L23.0197 1000.41 L41.6461 1000.41 L41.6461 985.937 L44.8081 985.937 L44.8081 1000.41 L72.9205 1000.41 Q83.8394 1000.41 83.8394 993.595 Q83.8394 990.68 80.875 988.753 Q77.8612 986.826 72.5253 986.826 L66.9423 986.826 L66.9423 984.306 L72.7229 984.306 Q78.207 984.306 82.3078 986.826 Q86.4085 989.346 86.4085 994.336 Q86.4085 996.164 85.9145 997.992 Q85.4698 999.77 84.2841 1002.14 Q83.0489 1004.46 80.0845 1005.95 Q77.0707 1007.38 72.7229 1007.38 L44.8081 1007.38 L44.8081 1015.98 Z" fill="#000000" fill-rule="nonzero" fill-opacity="1" /><path clip-path="url(#clip000)" d="M75.6379 974.425 Q67.0411 974.425 62.4957 964.296 Q59.5807 958.219 58.8396 945.67 L55.1341 945.67 Q48.8594 945.67 45.5492 948.98 Q42.1895 952.241 42.1895 956.391 Q42.1895 963.802 46.8338 967.36 Q46.9326 964.346 48.4642 963.259 Q49.9464 962.172 51.478 962.172 Q53.5037 962.172 54.8377 963.456 Q56.1222 964.692 56.1222 966.816 Q56.1222 968.842 54.8871 970.176 Q53.6025 971.51 51.3792 971.51 Q46.4385 971.51 43.1777 967.063 Q39.9168 962.567 39.9168 956.194 Q39.9168 947.893 45.4998 942.36 Q47.229 940.631 49.4523 939.791 Q51.6756 938.901 53.1578 938.802 Q54.5906 938.704 57.4562 938.704 L77.6636 938.704 Q78.2564 938.704 79.2446 938.506 Q80.2327 938.308 81.5173 937.419 Q82.7524 936.48 82.7524 934.949 Q82.7524 931.293 76.2802 931.342 L70.5984 931.342 L70.5984 928.773 L76.2802 928.773 Q81.6655 928.773 83.79 931.639 Q85.8651 934.455 85.8651 937.073 Q85.8651 940.433 83.3947 942.557 Q80.9244 944.682 77.5647 944.978 Q81.4185 946.51 83.9382 950.018 Q86.4085 953.476 86.4085 958.219 Q86.4085 961.875 85.4698 965.334 Q84.5805 968.743 82.0608 971.609 Q79.4916 974.425 75.6379 974.425 M75.5391 966.618 Q79.294 966.618 81.7149 963.951 Q84.1358 961.283 84.1358 957.528 Q84.1358 953.279 80.875 949.474 Q77.5647 945.67 71.0925 945.67 L60.9641 945.67 Q61.3593 956.885 65.8553 961.777 Q70.302 966.618 75.5391 966.618 Z" fill="#000000" fill-rule="nonzero" fill-opacity="1" /><path clip-path="url(#clip000)" d="M93.2761 925.265 Q90.0152 925.265 87.1991 922.795 Q84.3829 920.275 83.1477 915.927 Q80.3315 920.374 74.1557 920.374 Q69.4126 920.374 65.7565 917.261 Q61.804 922.004 55.3317 922.004 Q49.3535 922.004 44.9563 917.261 Q40.5591 912.518 40.5591 905.601 Q40.5591 899.524 44.2152 894.88 Q39.4722 890.038 39.4228 884.159 Q39.4228 881.54 41.0532 880.305 Q42.6836 879.02 44.4128 879.02 Q45.9444 879.02 46.6855 880.008 Q47.4266 880.947 47.4266 881.935 Q47.4266 883.171 46.6361 884.06 Q45.7962 884.9 44.5116 884.9 Q42.3872 884.9 41.7449 883.269 Q41.6461 883.566 41.6461 884.257 Q41.6461 889.198 45.5986 893.398 Q49.4523 889.248 55.4305 889.248 Q61.4087 889.248 65.8059 893.991 Q70.2031 898.734 70.2031 905.601 Q70.2031 911.283 67.0411 915.631 Q69.0668 917.36 71.8336 917.36 Q74.3533 917.36 76.3296 915.828 Q78.3058 914.297 78.6023 911.975 Q78.7011 911.283 78.7011 904.415 Q78.7011 900.364 78.7999 898.141 Q78.8987 895.917 79.5904 892.755 Q80.2327 889.544 81.5173 887.024 Q85.1734 880.453 93.0785 880.404 Q98.859 880.404 102.466 887.074 Q106.122 893.694 106.122 902.884 Q106.122 912.172 102.416 918.743 Q98.7602 925.265 93.2761 925.265 M93.2761 919.979 Q97.4262 919.979 100.588 915.087 Q103.8 910.196 103.8 902.785 Q103.8 895.522 100.638 890.631 Q97.5251 885.69 93.2761 885.69 Q90.2623 885.69 88.3354 887.42 Q86.4085 889.149 85.618 892.706 Q84.8769 896.214 84.7287 898.684 Q84.5805 901.155 84.5805 905.7 L84.5805 911.678 Q84.7781 915.137 87.2979 917.558 Q89.8176 919.979 93.2761 919.979 M55.4305 914.445 Q67.881 914.445 67.881 905.601 Q67.881 901.155 63.8297 898.437 Q61.1123 896.807 55.3317 896.807 Q42.8812 896.807 42.8812 905.601 Q42.8812 910.048 46.9326 912.815 Q49.6499 914.445 55.4305 914.445 Z" fill="#000000" fill-rule="nonzero" fill-opacity="1" /><path clip-path="url(#clip000)" d="M62.9898 874.673 Q53.4543 874.673 46.6855 868.546 Q39.9168 862.42 39.9168 853.625 Q39.9168 844.732 45.6974 840.137 Q51.478 835.493 59.7783 835.493 Q61.3099 835.493 61.6064 835.888 Q61.9028 836.284 61.9028 838.013 L61.9028 866.273 Q72.2288 866.273 77.0707 863.21 Q83.8394 858.961 83.8394 851.797 Q83.8394 850.809 83.6418 849.623 Q83.4441 848.438 82.6042 846.017 Q81.7149 843.596 79.3928 841.471 Q77.0707 839.347 73.4146 838.112 Q71.9818 837.815 72.0312 836.827 Q72.0312 835.493 73.2169 835.493 Q74.1063 835.493 76.1319 836.481 Q78.1082 837.42 80.4797 839.248 Q82.8513 841.076 84.6299 844.633 Q86.4085 848.141 86.4085 852.39 Q86.4085 861.283 79.6892 868.003 Q72.9205 874.673 62.9898 874.673 M59.7783 866.175 L59.7783 842.163 Q57.6538 842.163 55.2823 842.558 Q52.9108 842.904 49.6499 843.991 Q46.3397 845.029 44.2646 847.499 Q42.1895 849.969 42.1895 853.625 Q42.1895 855.256 42.8812 857.034 Q43.5729 858.764 45.2527 860.888 Q46.9326 863.013 50.7369 864.495 Q54.5412 865.977 59.7783 866.175 Z" fill="#000000" fill-rule="nonzero" fill-opacity="1" /><path clip-path="url(#clip000)" d="M110.568 788.408 L9.38347 788.408 L9.38347 773.142 L11.7056 773.142 L11.7056 781.64 L108.246 781.64 L108.246 773.142 L110.568 773.142 L110.568 788.408 Z" fill="#000000" fill-rule="nonzero" fill-opacity="1" /><path clip-path="url(#clip000)" d="M101.774 768.003 Q101.774 762.618 101.082 761.383 Q100.44 760.098 97.2286 760.098 L49.8476 760.098 Q46.4879 760.098 45.648 761.383 Q44.8081 762.618 44.8081 768.003 L41.6461 768.003 L40.5591 753.428 L47.229 753.428 Q40.5591 747.351 40.5591 739.249 Q40.5591 730.652 47.229 724.377 Q53.8989 718.103 63.4344 718.103 Q73.0687 718.103 79.7386 724.773 Q86.4085 731.442 86.4085 740.682 Q86.4085 745.721 83.8394 749.13 Q81.2208 752.49 79.294 753.132 L80.2327 753.132 L97.2286 753.132 Q100.489 753.132 101.132 751.847 Q101.774 750.563 101.774 745.227 L104.887 745.227 Q104.59 755.849 104.59 756.64 Q104.59 757.628 104.887 768.003 L101.774 768.003 M73.7604 753.132 Q75.292 753.132 75.8355 752.934 Q76.379 752.687 78.0094 751.699 Q84.1358 747.697 84.1358 741.176 Q84.1358 741.126 84.1358 741.077 Q84.1358 735.296 78.2564 730.899 Q72.3276 726.502 63.4344 726.502 Q54.9365 726.502 49.0077 730.504 Q43.0789 734.506 43.0789 740.039 Q43.0789 743.992 45.2033 747.45 Q47.3278 750.909 51.1816 753.132 L73.7604 753.132 Z" fill="#000000" fill-rule="nonzero" fill-opacity="1" /><path clip-path="url(#clip000)" d="M44.8081 711.433 L41.6461 711.433 L40.5591 696.561 L74.1557 696.561 Q76.5766 696.561 78.0094 696.364 Q79.3928 696.166 81.0232 695.376 Q82.6536 694.536 83.3947 692.658 Q84.1358 690.731 84.1358 687.668 Q84.1358 682.184 79.6398 678.824 Q75.1438 675.415 68.4739 675.415 L50.4405 675.415 Q46.6855 675.415 45.7468 676.749 Q44.8081 678.083 44.8081 683.32 L41.6461 683.32 L40.5591 668.449 L76.4778 668.449 Q80.2327 668.449 81.2208 667.164 Q82.1596 665.83 82.1596 660.544 L85.2722 660.544 L86.4085 675.119 L77.2683 675.119 Q86.3591 679.368 86.4085 688.162 Q86.4085 692.609 85.2722 695.672 Q84.1358 698.686 82.7524 700.217 Q81.3197 701.749 78.6023 702.589 Q75.8849 703.379 74.2051 703.478 Q72.5253 703.577 69.2644 703.577 L54.0965 703.577 Q47.229 703.577 46.0433 704.565 Q44.8081 705.553 44.8081 711.433 Z" fill="#000000" fill-rule="nonzero" fill-opacity="1" /><path clip-path="url(#clip000)" d="M108.246 656.443 L108.246 647.945 L11.7056 647.945 L11.7056 656.443 L9.38347 656.443 L9.38347 641.176 L110.568 641.176 L110.568 656.443 L108.246 656.443 Z" fill="#000000" fill-rule="nonzero" fill-opacity="1" /><path clip-path="url(#clip000)" d="M1060.68 21.2325 L1060.68 17.28 Q1074.33 17.6506 1076.73 17.6506 Q1090.26 17.6506 1094.83 17.28 L1094.83 21.2325 Q1084.45 21.2325 1084.45 24.8763 Q1084.45 25.3704 1085.2 27.1613 L1109.34 91.0195 L1132.5 30.064 Q1133.12 28.1495 1133.12 27.5319 Q1133.12 24.9998 1130.77 23.2088 Q1128.49 21.3561 1123.92 21.2325 L1123.92 17.28 Q1133.8 17.6506 1138.31 17.6506 Q1144.73 17.6506 1150.6 17.28 L1150.6 21.2325 Q1139.98 21.3561 1136.83 29.6934 L1108.6 104.051 Q1108.11 105.595 1107.61 106.027 Q1107.12 106.459 1105.58 106.459 Q1104.34 106.459 1103.66 105.965 Q1103.04 105.471 1102.43 103.68 L1073.09 26.0497 Q1071.86 22.653 1069.63 21.9736 Q1067.41 21.2325 1060.68 21.2325 Z" fill="#000000" fill-rule="nonzero" fill-opacity="1" /><path clip-path="url(#clip000)" d="M1154.49 96.8866 Q1146.15 88.611 1146.15 76.6298 Q1146.15 64.5869 1154.3 55.8172 Q1162.52 46.9858 1174.25 46.9858 Q1185.74 46.9858 1193.95 55.7555 Q1202.23 64.4634 1202.23 76.6298 Q1202.23 88.5492 1193.89 96.8248 Q1185.61 105.1 1174.13 105.1 Q1162.89 105.1 1154.49 96.8866 M1156.65 75.5799 Q1156.65 87.8698 1159.86 93.4281 Q1164.8 101.889 1174.25 101.889 Q1178.94 101.889 1182.84 99.3569 Q1186.79 96.8248 1188.95 92.5635 Q1191.73 87.0052 1191.73 75.5799 Q1191.73 63.4135 1188.39 58.0405 Q1183.45 49.8267 1174.13 49.8267 Q1170.05 49.8267 1166.04 51.9882 Q1162.08 54.088 1159.68 58.2876 Q1156.65 63.8458 1156.65 75.5799 Z" fill="#000000" fill-rule="nonzero" fill-opacity="1" /><path clip-path="url(#clip000)" d="M1210.07 103.68 L1210.07 99.7892 Q1216.8 99.7892 1218.35 98.9864 Q1219.89 98.1217 1219.89 94.0457 L1219.89 28.273 Q1219.89 23.5794 1218.22 22.4059 Q1216.62 21.2325 1210.07 21.2325 L1210.07 17.28 L1228.23 15.9213 L1228.23 94.0457 Q1228.23 98.1217 1229.83 98.9864 Q1231.44 99.7892 1238.11 99.7892 L1238.11 103.68 Q1236.57 103.68 1233.35 103.556 Q1230.14 103.433 1227.8 103.371 Q1225.45 103.309 1224.09 103.309 Q1222.61 103.309 1210.07 103.68 Z" fill="#000000" fill-rule="nonzero" fill-opacity="1" /><path clip-path="url(#clip000)" d="M1243.3 53.0999 L1243.3 50.3207 Q1249.1 50.0737 1252.93 45.9977 Q1256.82 41.8598 1258.12 36.7957 Q1259.48 31.7315 1259.6 25.8644 L1262.75 25.8644 L1262.75 49.1473 L1280.85 49.1473 L1280.85 53.0999 L1262.75 53.0999 L1262.75 88.2404 Q1262.75 101.889 1271.27 101.889 Q1274.92 101.889 1277.33 98.1835 Q1279.73 94.4162 1279.73 87.7463 L1279.73 80.7676 L1282.88 80.7676 L1282.88 87.9934 Q1282.88 94.8485 1279.73 99.9745 Q1276.58 105.1 1270.35 105.1 Q1268.06 105.1 1265.78 104.483 Q1263.55 103.927 1260.59 102.445 Q1257.69 100.901 1255.83 97.1954 Q1254.04 93.4281 1254.04 87.9934 L1254.04 53.0999 L1243.3 53.0999 Z" fill="#000000" fill-rule="nonzero" fill-opacity="1" /><path clip-path="url(#clip000)" d="M1295.24 91.6371 Q1295.24 80.8912 1307.9 75.2094 Q1315.49 71.5656 1331.18 70.6393 L1331.18 66.0074 Q1331.18 58.1641 1327.04 54.0262 Q1322.97 49.8267 1317.78 49.8267 Q1308.51 49.8267 1304.07 55.632 Q1307.83 55.7555 1309.19 57.67 Q1310.55 59.5227 1310.55 61.4373 Q1310.55 63.9693 1308.95 65.6368 Q1307.4 67.2425 1304.75 67.2425 Q1302.21 67.2425 1300.55 65.6986 Q1298.88 64.0929 1298.88 61.3137 Q1298.88 55.1379 1304.44 51.0618 Q1310.06 46.9858 1318.02 46.9858 Q1328.4 46.9858 1335.32 53.9645 Q1337.48 56.126 1338.53 58.9052 Q1339.64 61.6843 1339.76 63.537 Q1339.89 65.328 1339.89 68.91 L1339.89 94.1692 Q1339.89 94.9103 1340.13 96.1455 Q1340.38 97.3806 1341.49 98.9864 Q1342.67 100.53 1344.58 100.53 Q1349.15 100.53 1349.09 92.44 L1349.09 85.3378 L1352.3 85.3378 L1352.3 92.44 Q1352.3 99.1716 1348.72 101.827 Q1345.2 104.421 1341.93 104.421 Q1337.73 104.421 1335.07 101.333 Q1332.41 98.2453 1332.04 94.0457 Q1330.13 98.8628 1325.74 102.013 Q1321.42 105.1 1315.49 105.1 Q1310.92 105.1 1306.6 103.927 Q1302.34 102.815 1298.76 99.6657 Q1295.24 96.4543 1295.24 91.6371 M1304.99 91.5136 Q1304.99 96.2072 1308.33 99.2334 Q1311.66 102.26 1316.36 102.26 Q1321.67 102.26 1326.42 98.1835 Q1331.18 94.0457 1331.18 85.9553 L1331.18 73.2949 Q1317.16 73.7889 1311.05 79.4089 Q1304.99 84.9672 1304.99 91.5136 Z" fill="#000000" fill-rule="nonzero" fill-opacity="1" /><path clip-path="url(#clip000)" d="M1356.69 113.685 Q1356.69 109.609 1359.77 106.089 Q1362.92 102.568 1368.36 101.024 Q1362.8 97.5042 1362.8 89.7844 Q1362.8 83.8556 1366.69 79.2854 Q1360.76 74.3448 1360.76 66.2544 Q1360.76 58.7816 1366.69 53.2851 Q1372.62 47.7886 1381.27 47.7886 Q1388.86 47.7886 1394.67 52.3588 Q1400.72 46.43 1408.07 46.3682 Q1411.34 46.3682 1412.89 48.4062 Q1414.49 50.4443 1414.49 52.6058 Q1414.49 54.5203 1413.26 55.4467 Q1412.08 56.3731 1410.85 56.3731 Q1409.3 56.3731 1408.19 55.3849 Q1407.14 54.335 1407.14 52.7293 Q1407.14 50.0737 1409.18 49.2709 Q1408.81 49.1473 1407.94 49.1473 Q1401.77 49.1473 1396.52 54.088 Q1401.71 58.9052 1401.71 66.3779 Q1401.71 73.8507 1395.78 79.3472 Q1389.85 84.8437 1381.27 84.8437 Q1374.16 84.8437 1368.73 80.8912 Q1366.57 83.4232 1366.57 86.8817 Q1366.57 90.0314 1368.48 92.5017 Q1370.4 94.9721 1373.3 95.3426 Q1374.16 95.4661 1382.75 95.4661 Q1387.81 95.4661 1390.59 95.5896 Q1393.37 95.7132 1397.32 96.5778 Q1401.34 97.3806 1404.49 98.9864 Q1412.7 103.556 1412.76 113.438 Q1412.76 120.664 1404.42 125.172 Q1396.15 129.742 1384.66 129.742 Q1373.05 129.742 1364.84 125.11 Q1356.69 120.54 1356.69 113.685 M1363.29 113.685 Q1363.29 118.873 1369.41 122.825 Q1375.52 126.839 1384.79 126.839 Q1393.86 126.839 1399.98 122.887 Q1406.15 118.996 1406.15 113.685 Q1406.15 109.918 1403.99 107.509 Q1401.83 105.1 1397.38 104.112 Q1393 103.186 1389.91 103.001 Q1386.82 102.815 1381.14 102.815 L1373.67 102.815 Q1369.35 103.062 1366.32 106.212 Q1363.29 109.362 1363.29 113.685 M1370.21 66.3779 Q1370.21 81.941 1381.27 81.941 Q1386.82 81.941 1390.22 76.8769 Q1392.26 73.4801 1392.26 66.2544 Q1392.26 50.6913 1381.27 50.6913 Q1375.71 50.6913 1372.25 55.7555 Q1370.21 59.1522 1370.21 66.3779 Z" fill="#000000" fill-rule="nonzero" fill-opacity="1" /><path clip-path="url(#clip000)" d="M1419.93 75.827 Q1419.93 63.9076 1427.58 55.4467 Q1435.24 46.9858 1446.23 46.9858 Q1457.35 46.9858 1463.1 54.2115 Q1468.9 61.4373 1468.9 71.8127 Q1468.9 73.7272 1468.41 74.0977 Q1467.91 74.4683 1465.75 74.4683 L1430.42 74.4683 Q1430.42 87.3758 1434.25 93.4281 Q1439.57 101.889 1448.52 101.889 Q1449.76 101.889 1451.24 101.642 Q1452.72 101.395 1455.75 100.345 Q1458.77 99.2334 1461.43 96.3308 Q1464.08 93.4281 1465.63 88.858 Q1466 87.067 1467.23 87.1287 Q1468.9 87.1287 1468.9 88.611 Q1468.9 89.7226 1467.67 92.2547 Q1466.49 94.725 1464.21 97.6894 Q1461.92 100.654 1457.48 102.877 Q1453.09 105.1 1447.78 105.1 Q1436.66 105.1 1428.26 96.7013 Q1419.93 88.2404 1419.93 75.827 M1430.55 71.8127 L1460.56 71.8127 Q1460.56 69.1571 1460.07 66.1927 Q1459.64 63.2282 1458.28 59.1522 Q1456.98 55.0144 1453.89 52.4205 Q1450.81 49.8267 1446.23 49.8267 Q1444.2 49.8267 1441.97 50.6913 Q1439.81 51.5559 1437.16 53.6557 Q1434.5 55.7555 1432.65 60.5109 Q1430.8 65.2663 1430.55 71.8127 Z" fill="#000000" fill-rule="nonzero" fill-opacity="1" /><path clip-path="url(#clip000)" d="M1518.68 103.68 L1518.68 99.7892 Q1525.41 99.7892 1526.95 98.9864 Q1528.5 98.1217 1528.5 94.0457 L1528.5 60.1403 Q1528.5 55.4467 1526.83 54.2733 Q1525.22 53.0999 1518.68 53.0999 L1518.68 49.1473 L1536.46 47.7886 L1536.46 61.0667 Q1542.39 47.7886 1555.18 47.7886 Q1570 47.7886 1572.04 60.1403 Q1574.2 55.3232 1578.71 51.5559 Q1583.28 47.7886 1590.38 47.7886 Q1599.89 47.7886 1603.66 52.4823 Q1606.44 55.632 1606.99 59.1522 Q1607.55 62.6724 1607.55 71.8127 L1607.55 95.9602 Q1607.67 98.6158 1609.71 99.2334 Q1611.75 99.7892 1617.43 99.7892 L1617.43 103.68 Q1604.52 103.309 1603.29 103.309 Q1602.3 103.309 1588.96 103.68 L1588.96 99.7892 Q1595.69 99.7892 1597.23 98.9864 Q1598.84 98.1217 1598.84 94.0457 L1598.84 64.5869 Q1598.84 58.1641 1596.86 54.3968 Q1594.89 50.5678 1589.45 50.5678 Q1582.91 50.5678 1577.66 56.0643 Q1572.41 61.5608 1572.41 70.8245 L1572.41 94.0457 Q1572.41 98.1217 1573.95 98.9864 Q1575.56 99.7892 1582.29 99.7892 L1582.29 103.68 Q1569.38 103.309 1568.08 103.309 Q1567.1 103.309 1553.82 103.68 L1553.82 99.7892 Q1560.55 99.7892 1562.09 98.9864 Q1563.7 98.1217 1563.7 94.0457 L1563.7 64.5869 Q1563.7 58.1641 1561.72 54.3968 Q1559.75 50.5678 1554.31 50.5678 Q1547.77 50.5678 1542.52 56.0643 Q1537.27 61.5608 1537.27 70.8245 L1537.27 94.0457 Q1537.27 98.1217 1538.81 98.9864 Q1540.42 99.7892 1547.09 99.7892 L1547.09 103.68 Q1534.18 103.309 1532.94 103.309 Q1531.96 103.309 1518.68 103.68 Z" fill="#000000" fill-rule="nonzero" fill-opacity="1" /><path clip-path="url(#clip000)" d="M1625.21 91.6371 Q1625.21 80.8912 1637.87 75.2094 Q1645.47 71.5656 1661.15 70.6393 L1661.15 66.0074 Q1661.15 58.1641 1657.02 54.0262 Q1652.94 49.8267 1647.75 49.8267 Q1638.49 49.8267 1634.04 55.632 Q1637.81 55.7555 1639.17 57.67 Q1640.53 59.5227 1640.53 61.4373 Q1640.53 63.9693 1638.92 65.6368 Q1637.38 67.2425 1634.72 67.2425 Q1632.19 67.2425 1630.52 65.6986 Q1628.85 64.0929 1628.85 61.3137 Q1628.85 55.1379 1634.41 51.0618 Q1640.03 46.9858 1648 46.9858 Q1658.38 46.9858 1665.29 53.9645 Q1667.45 56.126 1668.5 58.9052 Q1669.62 61.6843 1669.74 63.537 Q1669.86 65.328 1669.86 68.91 L1669.86 94.1692 Q1669.86 94.9103 1670.11 96.1455 Q1670.36 97.3806 1671.47 98.9864 Q1672.64 100.53 1674.56 100.53 Q1679.13 100.53 1679.06 92.44 L1679.06 85.3378 L1682.28 85.3378 L1682.28 92.44 Q1682.28 99.1716 1678.69 101.827 Q1675.17 104.421 1671.9 104.421 Q1667.7 104.421 1665.05 101.333 Q1662.39 98.2453 1662.02 94.0457 Q1660.1 98.8628 1655.72 102.013 Q1651.4 105.1 1645.47 105.1 Q1640.9 105.1 1636.57 103.927 Q1632.31 102.815 1628.73 99.6657 Q1625.21 96.4543 1625.21 91.6371 M1634.97 91.5136 Q1634.97 96.2072 1638.3 99.2334 Q1641.64 102.26 1646.33 102.26 Q1651.64 102.26 1656.4 98.1835 Q1661.15 94.0457 1661.15 85.9553 L1661.15 73.2949 Q1647.14 73.7889 1641.02 79.4089 Q1634.97 84.9672 1634.97 91.5136 Z" fill="#000000" fill-rule="nonzero" fill-opacity="1" /><path clip-path="url(#clip000)" d="M1686.66 113.685 Q1686.66 109.609 1689.75 106.089 Q1692.9 102.568 1698.33 101.024 Q1692.77 97.5042 1692.77 89.7844 Q1692.77 83.8556 1696.67 79.2854 Q1690.74 74.3448 1690.74 66.2544 Q1690.74 58.7816 1696.67 53.2851 Q1702.59 47.7886 1711.24 47.7886 Q1718.84 47.7886 1724.64 52.3588 Q1730.69 46.43 1738.04 46.3682 Q1741.32 46.3682 1742.86 48.4062 Q1744.47 50.4443 1744.47 52.6058 Q1744.47 54.5203 1743.23 55.4467 Q1742.06 56.3731 1740.82 56.3731 Q1739.28 56.3731 1738.17 55.3849 Q1737.12 54.335 1737.12 52.7293 Q1737.12 50.0737 1739.16 49.2709 Q1738.78 49.1473 1737.92 49.1473 Q1731.74 49.1473 1726.49 54.088 Q1731.68 58.9052 1731.68 66.3779 Q1731.68 73.8507 1725.75 79.3472 Q1719.82 84.8437 1711.24 84.8437 Q1704.14 84.8437 1698.7 80.8912 Q1696.54 83.4232 1696.54 86.8817 Q1696.54 90.0314 1698.46 92.5017 Q1700.37 94.9721 1703.27 95.3426 Q1704.14 95.4661 1712.72 95.4661 Q1717.79 95.4661 1720.57 95.5896 Q1723.34 95.7132 1727.3 96.5778 Q1731.31 97.3806 1734.46 98.9864 Q1742.68 103.556 1742.74 113.438 Q1742.74 120.664 1734.4 125.172 Q1726.12 129.742 1714.64 129.742 Q1703.03 129.742 1694.81 125.11 Q1686.66 120.54 1686.66 113.685 M1693.27 113.685 Q1693.27 118.873 1699.38 122.825 Q1705.5 126.839 1714.76 126.839 Q1723.84 126.839 1729.95 122.887 Q1736.13 118.996 1736.13 113.685 Q1736.13 109.918 1733.97 107.509 Q1731.81 105.1 1727.36 104.112 Q1722.97 103.186 1719.89 103.001 Q1716.8 102.815 1711.12 102.815 L1703.64 102.815 Q1699.32 103.062 1696.29 106.212 Q1693.27 109.362 1693.27 113.685 M1700.19 66.3779 Q1700.19 81.941 1711.24 81.941 Q1716.8 81.941 1720.2 76.8769 Q1722.23 73.4801 1722.23 66.2544 Q1722.23 50.6913 1711.24 50.6913 Q1705.68 50.6913 1702.22 55.7555 Q1700.19 59.1522 1700.19 66.3779 Z" fill="#000000" fill-rule="nonzero" fill-opacity="1" /><path clip-path="url(#clip000)" d="M1750.46 103.68 L1750.46 99.7892 Q1757.19 99.7892 1758.73 98.9864 Q1760.28 98.1217 1760.28 94.0457 L1760.28 60.1403 Q1760.28 55.4467 1758.61 54.2733 Q1757 53.0999 1750.46 53.0999 L1750.46 49.1473 L1768.24 47.7886 L1768.24 61.0667 Q1774.17 47.7886 1786.96 47.7886 Q1796.47 47.7886 1800.23 52.4823 Q1803.01 55.632 1803.57 59.1522 Q1804.19 62.6724 1804.19 71.8127 L1804.19 95.9602 Q1804.31 98.6158 1806.35 99.2334 Q1808.39 99.7892 1814.07 99.7892 L1814.07 103.68 Q1801.16 103.309 1799.86 103.309 Q1798.88 103.309 1785.6 103.68 L1785.6 99.7892 Q1792.33 99.7892 1793.87 98.9864 Q1795.48 98.1217 1795.48 94.0457 L1795.48 64.5869 Q1795.48 58.1641 1793.5 54.3968 Q1791.53 50.5678 1786.09 50.5678 Q1779.55 50.5678 1774.3 56.0643 Q1769.05 61.5608 1769.05 70.8245 L1769.05 94.0457 Q1769.05 98.1217 1770.59 98.9864 Q1772.2 99.7892 1778.87 99.7892 L1778.87 103.68 Q1765.96 103.309 1764.72 103.309 Q1763.73 103.309 1750.46 103.68 Z" fill="#000000" fill-rule="nonzero" fill-opacity="1" /><path clip-path="url(#clip000)" d="M1820.74 103.68 L1820.74 99.7892 Q1827.47 99.7892 1829.01 98.9864 Q1830.56 98.1217 1830.56 94.0457 L1830.56 60.0168 Q1830.56 55.3232 1828.95 54.2115 Q1827.41 53.0999 1821.23 53.0999 L1821.23 49.1473 L1838.89 47.7886 L1838.89 94.1692 Q1838.89 97.9365 1840.25 98.8628 Q1841.61 99.7892 1847.79 99.7892 L1847.79 103.68 Q1834.88 103.309 1834.63 103.309 Q1832.9 103.309 1820.74 103.68 M1826.05 25.7409 Q1826.05 23.2088 1827.96 21.1708 Q1829.94 19.071 1832.72 19.071 Q1835.5 19.071 1837.47 20.9855 Q1839.45 22.8383 1839.45 25.8027 Q1839.45 28.7053 1837.47 30.6198 Q1835.5 32.4726 1832.72 32.4726 Q1829.82 32.4726 1827.9 30.4345 Q1826.05 28.3965 1826.05 25.7409 Z" fill="#000000" fill-rule="nonzero" fill-opacity="1" /><path clip-path="url(#clip000)" d="M1853.96 53.0999 L1853.96 50.3207 Q1859.77 50.0737 1863.6 45.9977 Q1867.49 41.8598 1868.79 36.7957 Q1870.14 31.7315 1870.27 25.8644 L1873.42 25.8644 L1873.42 49.1473 L1891.51 49.1473 L1891.51 53.0999 L1873.42 53.0999 L1873.42 88.2404 Q1873.42 101.889 1881.94 101.889 Q1885.58 101.889 1887.99 98.1835 Q1890.4 94.4162 1890.4 87.7463 L1890.4 80.7676 L1893.55 80.7676 L1893.55 87.9934 Q1893.55 94.8485 1890.4 99.9745 Q1887.25 105.1 1881.01 105.1 Q1878.73 105.1 1876.44 104.483 Q1874.22 103.927 1871.26 102.445 Q1868.35 100.901 1866.5 97.1954 Q1864.71 93.4281 1864.71 87.9934 L1864.71 53.0999 L1853.96 53.0999 Z" fill="#000000" fill-rule="nonzero" fill-opacity="1" /><path clip-path="url(#clip000)" d="M1904.67 53.0999 L1904.67 49.1473 L1923.26 47.7886 L1923.26 89.7844 Q1923.26 92.8105 1923.5 94.6015 Q1923.75 96.3308 1924.74 98.3688 Q1925.79 100.407 1928.14 101.333 Q1930.54 102.26 1934.37 102.26 Q1941.23 102.26 1945.43 96.6395 Q1949.69 91.0195 1949.69 82.6821 L1949.69 60.1403 Q1949.69 55.4467 1948.02 54.2733 Q1946.35 53.0999 1939.81 53.0999 L1939.81 49.1473 L1958.4 47.7886 L1958.4 92.687 Q1958.4 97.3806 1960 98.6158 Q1961.67 99.7892 1968.28 99.7892 L1968.28 103.68 L1950.06 105.1 L1950.06 93.6751 Q1944.75 105.039 1933.76 105.1 Q1928.2 105.1 1924.37 103.68 Q1920.6 102.26 1918.69 100.53 Q1916.77 98.7393 1915.72 95.3426 Q1914.73 91.9459 1914.61 89.8461 Q1914.49 87.7463 1914.49 83.6703 L1914.49 64.7105 Q1914.49 56.126 1913.25 54.6438 Q1912.02 53.0999 1904.67 53.0999 Z" fill="#000000" fill-rule="nonzero" fill-opacity="1" /><path clip-path="url(#clip000)" d="M1975.07 76.5063 Q1975.07 64.4634 1983.47 56.126 Q1991.87 47.7886 2003.23 47.7886 Q2012.87 47.7886 2019.17 55.632 L2019.17 28.273 Q2019.17 23.5794 2017.5 22.4059 Q2015.89 21.2325 2009.35 21.2325 L2009.35 17.28 L2027.57 15.9213 L2027.57 92.687 Q2027.57 97.3806 2029.17 98.6158 Q2030.84 99.7892 2037.39 99.7892 L2037.39 103.68 L2018.8 105.1 L2018.8 96.7013 Q2012.25 105.039 2001.88 105.1 Q1991.01 105.1 1983.04 96.7631 Q1975.07 88.4257 1975.07 76.5063 M1985.57 76.6298 Q1985.57 88.3639 1989.21 94.1692 Q1994.28 102.26 2002.49 102.26 Q2011.88 102.26 2017.44 93.4281 Q2018.86 91.2666 2018.8 88.7345 L2018.8 62.7959 Q2018.8 60.2638 2017.44 58.1641 Q2012.25 50.5678 2003.79 50.5678 Q1994.96 50.5678 1989.46 58.6581 Q1985.57 64.7105 1985.57 76.6298 Z" fill="#000000" fill-rule="nonzero" fill-opacity="1" /><path clip-path="url(#clip000)" d="M2044.43 75.827 Q2044.43 63.9076 2052.08 55.4467 Q2059.74 46.9858 2070.74 46.9858 Q2081.85 46.9858 2087.6 54.2115 Q2093.4 61.4373 2093.4 71.8127 Q2093.4 73.7272 2092.91 74.0977 Q2092.41 74.4683 2090.25 74.4683 L2054.93 74.4683 Q2054.93 87.3758 2058.75 93.4281 Q2064.07 101.889 2073.02 101.889 Q2074.26 101.889 2075.74 101.642 Q2077.22 101.395 2080.25 100.345 Q2083.27 99.2334 2085.93 96.3308 Q2088.58 93.4281 2090.13 88.858 Q2090.5 87.067 2091.73 87.1287 Q2093.4 87.1287 2093.4 88.611 Q2093.4 89.7226 2092.17 92.2547 Q2090.99 94.725 2088.71 97.6894 Q2086.42 100.654 2081.98 102.877 Q2077.59 105.1 2072.28 105.1 Q2061.16 105.1 2052.76 96.7013 Q2044.43 88.2404 2044.43 75.827 M2055.05 71.8127 L2085.06 71.8127 Q2085.06 69.1571 2084.57 66.1927 Q2084.14 63.2282 2082.78 59.1522 Q2081.48 55.0144 2078.39 52.4205 Q2075.31 49.8267 2070.74 49.8267 Q2068.7 49.8267 2066.47 50.6913 Q2064.31 51.5559 2061.66 53.6557 Q2059 55.7555 2057.15 60.5109 Q2055.3 65.2663 2055.05 71.8127 Z" fill="#000000" fill-rule="nonzero" fill-opacity="1" /><path clip-path="url(#clip002)" d="M459.456 419.163 L459.456 8423.94 L831.984 8423.94 L831.984 419.163 L459.456 419.163 L459.456 419.163  Z" fill="#009af9" fill-rule="evenodd" fill-opacity="1"/>
<polyline clip-path="url(#clip002)" style="stroke:#000000; stroke-linecap:round; stroke-linejoin:round; stroke-width:4; stroke-opacity:1; fill:none" points="459.456,419.163 459.456,8423.94 831.984,8423.94 831.984,419.163 459.456,419.163 "/>
<path clip-path="url(#clip002)" d="M925.116 317.759 L925.116 8423.94 L1297.64 8423.94 L1297.64 317.759 L925.116 317.759 L925.116 317.759  Z" fill="#009af9" fill-rule="evenodd" fill-opacity="1"/>
<polyline clip-path="url(#clip002)" style="stroke:#000000; stroke-linecap:round; stroke-linejoin:round; stroke-width:4; stroke-opacity:1; fill:none" points="925.116,317.759 925.116,8423.94 1297.64,8423.94 1297.64,317.759 925.116,317.759 "/>
<path clip-path="url(#clip002)" d="M1390.78 382.052 L1390.78 8423.94 L1763.3 8423.94 L1763.3 382.052 L1390.78 382.052 L1390.78 382.052  Z" fill="#009af9" fill-rule="evenodd" fill-opacity="1"/>
<polyline clip-path="url(#clip002)" style="stroke:#000000; stroke-linecap:round; stroke-linejoin:round; stroke-width:4; stroke-opacity:1; fill:none" points="1390.78,382.052 1390.78,8423.94 1763.3,8423.94 1763.3,382.052 1390.78,382.052 "/>
<path clip-path="url(#clip002)" d="M1856.44 269.262 L1856.44 8423.94 L2228.96 8423.94 L2228.96 269.262 L1856.44 269.262 L1856.44 269.262  Z" fill="#009af9" fill-rule="evenodd" fill-opacity="1"/>
<polyline clip-path="url(#clip002)" style="stroke:#000000; stroke-linecap:round; stroke-linejoin:round; stroke-width:4; stroke-opacity:1; fill:none" points="1856.44,269.262 1856.44,8423.94 2228.96,8423.94 2228.96,269.262 1856.44,269.262 "/>
<path clip-path="url(#clip002)" d="M2322.09 149.392 L2322.09 8423.94 L2694.62 8423.94 L2694.62 149.392 L2322.09 149.392 L2322.09 149.392  Z" fill="#009af9" fill-rule="evenodd" fill-opacity="1"/>
<polyline clip-path="url(#clip002)" style="stroke:#000000; stroke-linecap:round; stroke-linejoin:round; stroke-width:4; stroke-opacity:1; fill:none" points="2322.09,149.392 2322.09,8423.94 2694.62,8423.94 2694.62,149.392 2322.09,149.392 "/>
<circle clip-path="url(#clip002)" style="fill:#009af9; stroke:none; fill-opacity:0" cx="645.72" cy="419.163" r="2"/>
<circle clip-path="url(#clip002)" style="fill:#009af9; stroke:none; fill-opacity:0" cx="1111.38" cy="317.759" r="2"/>
<circle clip-path="url(#clip002)" style="fill:#009af9; stroke:none; fill-opacity:0" cx="1577.04" cy="382.052" r="2"/>
<circle clip-path="url(#clip002)" style="fill:#009af9; stroke:none; fill-opacity:0" cx="2042.7" cy="269.262" r="2"/>
</svg>
